<?xml version="1.0" encoding="us-ascii" standalone="no"?><svg xmlns="http://www.w3.org/2000/svg" xmlns:xlink="http://www.w3.org/1999/xlink" contentStyleType="text/css" height="1377px" preserveAspectRatio="none" style="width:2056px;height:1377px;background:#FFFFFF;" version="1.1" viewBox="0 0 2056 1377" width="2056px" zoomAndPan="magnify"><defs/><g><!--class Frame--><g id="elem_Frame"><rect codeLine="11" fill="#F1F1F1" height="181.4754" id="Frame" rx="2.5" ry="2.5" style="stroke:#181818;stroke-width:0.5;" width="327" x="456.5" y="882"/><ellipse cx="594.75" cy="898" fill="#ADD1B2" rx="11" ry="11" style="stroke:#181818;stroke-width:1.0;"/><path d="M597.7188,903.6406 Q597.1406,903.9375 596.5,904.0781 Q595.8594,904.2344 595.1563,904.2344 Q592.6563,904.2344 591.3281,902.5938 Q590.0156,900.9375 590.0156,897.8125 Q590.0156,894.6875 591.3281,893.0313 Q592.6563,891.375 595.1563,891.375 Q595.8594,891.375 596.5,891.5313 Q597.1563,891.6875 597.7188,891.9844 L597.7188,894.7031 Q597.0938,894.125 596.5,893.8594 Q595.9063,893.5781 595.2813,893.5781 Q593.9375,893.5781 593.25,894.6563 Q592.5625,895.7188 592.5625,897.8125 Q592.5625,899.9063 593.25,900.9844 Q593.9375,902.0469 595.2813,902.0469 Q595.9063,902.0469 596.5,901.7813 Q597.0938,901.5 597.7188,900.9219 L597.7188,903.6406 Z " fill="#000000"/><text fill="#000000" font-family="sans-serif" font-size="14" lengthAdjust="spacing" textLength="42" x="615.25" y="903.432">Frame</text><line style="stroke:#181818;stroke-width:0.5;" x1="457.5" x2="782.5" y1="914" y2="914"/><text fill="#000000" font-family="sans-serif" font-size="14" lengthAdjust="spacing" textLength="123" x="462.5" y="932.9659">-self: SOL25Object</text><text fill="#000000" font-family="sans-serif" font-size="14" lengthAdjust="spacing" textLength="181" x="462.5" y="952.0339">-variables: VariableStorage</text><line style="stroke:#181818;stroke-width:0.5;" x1="457.5" x2="782.5" y1="960.1358" y2="960.1358"/><text fill="#000000" font-family="sans-serif" font-size="14" lengthAdjust="spacing" textLength="91" x="462.5" y="979.1018">+__construct()</text><text fill="#000000" font-family="sans-serif" font-size="14" lengthAdjust="spacing" textLength="157" x="462.5" y="998.1697">+getSelf(): SOL25Object</text><text fill="#000000" font-family="sans-serif" font-size="14" lengthAdjust="spacing" textLength="273" x="462.5" y="1017.2376">+getVariable(name: string): SOL25Object</text><text fill="#000000" font-family="sans-serif" font-size="14" lengthAdjust="spacing" textLength="315" x="462.5" y="1036.3055">+setVariable(name: string, value: SOL25Object)</text><text fill="#000000" font-family="sans-serif" font-size="14" lengthAdjust="spacing" textLength="220" x="462.5" y="1055.3734">+isParameter(name: string): bool</text></g><!--class InterpreterException--><g id="elem_InterpreterException"><rect codeLine="21" fill="#F1F1F1" height="59.0679" id="InterpreterException" rx="2.5" ry="2.5" style="stroke:#181818;stroke-width:0.5;" width="277" x="1772.5" y="7"/><ellipse cx="1836.75" cy="23" fill="#ADD1B2" rx="11" ry="11" style="stroke:#181818;stroke-width:1.0;"/><path d="M1839.7188,28.6406 Q1839.1406,28.9375 1838.5,29.0781 Q1837.8594,29.2344 1837.1563,29.2344 Q1834.6563,29.2344 1833.3281,27.5938 Q1832.0156,25.9375 1832.0156,22.8125 Q1832.0156,19.6875 1833.3281,18.0313 Q1834.6563,16.375 1837.1563,16.375 Q1837.8594,16.375 1838.5,16.5313 Q1839.1563,16.6875 1839.7188,16.9844 L1839.7188,19.7031 Q1839.0938,19.125 1838.5,18.8594 Q1837.9063,18.5781 1837.2813,18.5781 Q1835.9375,18.5781 1835.25,19.6563 Q1834.5625,20.7188 1834.5625,22.8125 Q1834.5625,24.9063 1835.25,25.9844 Q1835.9375,27.0469 1837.2813,27.0469 Q1837.9063,27.0469 1838.5,26.7813 Q1839.0938,26.5 1839.7188,25.9219 L1839.7188,28.6406 Z " fill="#000000"/><text fill="#000000" font-family="sans-serif" font-size="14" lengthAdjust="spacing" textLength="140" x="1857.25" y="28.432">InterpreterException</text><line style="stroke:#181818;stroke-width:0.5;" x1="1773.5" x2="2048.5" y1="39" y2="39"/><text fill="#000000" font-family="sans-serif" font-size="14" lengthAdjust="spacing" textLength="265" x="1778.5" y="57.9659">+__construct(message: string, code: int)</text></g><!--class BuiltinLoader--><g id="elem_BuiltinLoader"><rect codeLine="25" fill="#F1F1F1" height="59.0679" id="BuiltinLoader" rx="2.5" ry="2.5" style="stroke:#181818;stroke-width:0.5;" width="288" x="954" y="7"/><ellipse cx="1048.75" cy="23" fill="#ADD1B2" rx="11" ry="11" style="stroke:#181818;stroke-width:1.0;"/><path d="M1051.7188,28.6406 Q1051.1406,28.9375 1050.5,29.0781 Q1049.8594,29.2344 1049.1563,29.2344 Q1046.6563,29.2344 1045.3281,27.5938 Q1044.0156,25.9375 1044.0156,22.8125 Q1044.0156,19.6875 1045.3281,18.0313 Q1046.6563,16.375 1049.1563,16.375 Q1049.8594,16.375 1050.5,16.5313 Q1051.1563,16.6875 1051.7188,16.9844 L1051.7188,19.7031 Q1051.0938,19.125 1050.5,18.8594 Q1049.9063,18.5781 1049.2813,18.5781 Q1047.9375,18.5781 1047.25,19.6563 Q1046.5625,20.7188 1046.5625,22.8125 Q1046.5625,24.9063 1047.25,25.9844 Q1047.9375,27.0469 1049.2813,27.0469 Q1049.9063,27.0469 1050.5,26.7813 Q1051.0938,26.5 1051.7188,25.9219 L1051.7188,28.6406 Z " fill="#000000"/><text fill="#000000" font-family="sans-serif" font-size="14" lengthAdjust="spacing" textLength="90" x="1069.25" y="28.432">BuiltinLoader</text><line style="stroke:#181818;stroke-width:0.5;" x1="955" x2="1241" y1="39" y2="39"/><text fill="#000000" font-family="sans-serif" font-size="14" lengthAdjust="spacing" textLength="8" x="960" y="57.9659">+</text><text fill="#000000" font-family="sans-serif" font-size="14" lengthAdjust="spacing" text-decoration="underline" textLength="268" x="968" y="57.9659">loadBuiltins(environment: Environment)</text></g><!--class Interpreter--><g id="elem_Interpreter"><rect codeLine="29" fill="#F1F1F1" height="59.0679" id="Interpreter" rx="2.5" ry="2.5" style="stroke:#181818;stroke-width:0.5;" width="435" x="1302.5" y="7"/><ellipse cx="1478.25" cy="23" fill="#ADD1B2" rx="11" ry="11" style="stroke:#181818;stroke-width:1.0;"/><path d="M1481.2188,28.6406 Q1480.6406,28.9375 1480,29.0781 Q1479.3594,29.2344 1478.6563,29.2344 Q1476.1563,29.2344 1474.8281,27.5938 Q1473.5156,25.9375 1473.5156,22.8125 Q1473.5156,19.6875 1474.8281,18.0313 Q1476.1563,16.375 1478.6563,16.375 Q1479.3594,16.375 1480,16.5313 Q1480.6563,16.6875 1481.2188,16.9844 L1481.2188,19.7031 Q1480.5938,19.125 1480,18.8594 Q1479.4063,18.5781 1478.7813,18.5781 Q1477.4375,18.5781 1476.75,19.6563 Q1476.0625,20.7188 1476.0625,22.8125 Q1476.0625,24.9063 1476.75,25.9844 Q1477.4375,27.0469 1478.7813,27.0469 Q1479.4063,27.0469 1480,26.7813 Q1480.5938,26.5 1481.2188,25.9219 L1481.2188,28.6406 Z " fill="#000000"/><text fill="#000000" font-family="sans-serif" font-size="14" lengthAdjust="spacing" textLength="75" x="1498.75" y="28.432">Interpreter</text><line style="stroke:#181818;stroke-width:0.5;" x1="1303.5" x2="1736.5" y1="39" y2="39"/><text fill="#000000" font-family="sans-serif" font-size="14" lengthAdjust="spacing" textLength="423" x="1308.5" y="57.9659">+execute(program: SOL25Program, environment: Environment)</text></g><!--class Environment--><g id="elem_Environment"><rect codeLine="33" fill="#F1F1F1" height="658.1733" id="Environment" rx="2.5" ry="2.5" style="stroke:#181818;stroke-width:0.5;" width="691" x="752.5" y="145"/><ellipse cx="1050.75" cy="161" fill="#ADD1B2" rx="11" ry="11" style="stroke:#181818;stroke-width:1.0;"/><path d="M1053.7188,166.6406 Q1053.1406,166.9375 1052.5,167.0781 Q1051.8594,167.2344 1051.1563,167.2344 Q1048.6563,167.2344 1047.3281,165.5938 Q1046.0156,163.9375 1046.0156,160.8125 Q1046.0156,157.6875 1047.3281,156.0313 Q1048.6563,154.375 1051.1563,154.375 Q1051.8594,154.375 1052.5,154.5313 Q1053.1563,154.6875 1053.7188,154.9844 L1053.7188,157.7031 Q1053.0938,157.125 1052.5,156.8594 Q1051.9063,156.5781 1051.2813,156.5781 Q1049.9375,156.5781 1049.25,157.6563 Q1048.5625,158.7188 1048.5625,160.8125 Q1048.5625,162.9063 1049.25,163.9844 Q1049.9375,165.0469 1051.2813,165.0469 Q1051.9063,165.0469 1052.5,164.7813 Q1053.0938,164.5 1053.7188,163.9219 L1053.7188,166.6406 Z " fill="#000000"/><text fill="#000000" font-family="sans-serif" font-size="14" lengthAdjust="spacing" textLength="86" x="1071.25" y="166.432">Environment</text><line style="stroke:#181818;stroke-width:0.5;" x1="753.5" x2="1442.5" y1="177" y2="177"/><text fill="#000000" font-family="sans-serif" font-size="14" lengthAdjust="spacing" textLength="193" x="758.5" y="195.9659">-classes: array&lt;SOL25Class &gt;</text><text fill="#000000" font-family="sans-serif" font-size="14" lengthAdjust="spacing" textLength="181" x="758.5" y="215.0339">-frameStack: array&lt;Frame&gt;</text><text fill="#000000" font-family="sans-serif" font-size="14" lengthAdjust="spacing" textLength="200" x="758.5" y="234.1018">-currentMethod: SOL25Metho</text><text fill="#000000" font-family="sans-serif" font-size="14" lengthAdjust="spacing" textLength="48" x="758.5" y="253.1697">-stdout</text><text fill="#000000" font-family="sans-serif" font-size="14" lengthAdjust="spacing" textLength="41" x="758.5" y="272.2376">-input</text><text fill="#000000" font-family="sans-serif" font-size="14" lengthAdjust="spacing" textLength="46" x="758.5" y="291.3055">-stderr</text><text fill="#000000" font-family="sans-serif" font-size="14" lengthAdjust="spacing" textLength="149" x="758.5" y="310.3734">-nilInstance: SOL25Nil</text><text fill="#000000" font-family="sans-serif" font-size="14" lengthAdjust="spacing" textLength="172" x="758.5" y="329.4414">-trueInstance: SOL25True</text><text fill="#000000" font-family="sans-serif" font-size="14" lengthAdjust="spacing" textLength="179" x="758.5" y="348.5093">-falseInstance: SOL25False</text><line style="stroke:#181818;stroke-width:0.5;" x1="753.5" x2="1442.5" y1="356.6113" y2="356.6113"/><text fill="#000000" font-family="sans-serif" font-size="14" lengthAdjust="spacing" textLength="227" x="758.5" y="375.5772">-tryHandleSpecificBuiltinMethod()</text><text fill="#000000" font-family="sans-serif" font-size="14" lengthAdjust="spacing" textLength="208" x="758.5" y="394.6451">-handleWhileTrueForInstance()</text><text fill="#000000" font-family="sans-serif" font-size="14" lengthAdjust="spacing" textLength="235" x="758.5" y="413.713">-tryHandleCommonBuiltinMethod()</text><text fill="#000000" font-family="sans-serif" font-size="14" lengthAdjust="spacing" textLength="91" x="758.5" y="432.7809">+__construct()</text><text fill="#000000" font-family="sans-serif" font-size="14" lengthAdjust="spacing" textLength="195" x="758.5" y="451.8489">+addClass(class: SOL25Class)</text><text fill="#000000" font-family="sans-serif" font-size="14" lengthAdjust="spacing" textLength="244" x="758.5" y="470.9168">+getClass(name: string): SOL25Class</text><text fill="#000000" font-family="sans-serif" font-size="14" lengthAdjust="spacing" textLength="301" x="758.5" y="489.9847">+getRuntimeClass(name: string): SOL25Class</text><text fill="#000000" font-family="sans-serif" font-size="14" lengthAdjust="spacing" textLength="391" x="758.5" y="509.0526">+instantiateClass(classModel: SOL25Class): SOL25Instance</text><text fill="#000000" font-family="sans-serif" font-size="14" lengthAdjust="spacing" textLength="182" x="758.5" y="528.1205">+pushFrame(frame: Frame)</text><text fill="#000000" font-family="sans-serif" font-size="14" lengthAdjust="spacing" textLength="134" x="758.5" y="547.1884">+popFrame(): Frame</text><text fill="#000000" font-family="sans-serif" font-size="14" lengthAdjust="spacing" textLength="182" x="758.5" y="566.2564">+getCurrentFrame(): Frame</text><text fill="#000000" font-family="sans-serif" font-size="14" lengthAdjust="spacing" textLength="273" x="758.5" y="585.3243">+getVariable(name: string): SOL25Object</text><text fill="#000000" font-family="sans-serif" font-size="14" lengthAdjust="spacing" textLength="315" x="758.5" y="604.3922">+setVariable(name: string, value: SOL25Object)</text><text fill="#000000" font-family="sans-serif" font-size="14" lengthAdjust="spacing" textLength="220" x="758.5" y="623.4601">+isParameter(name: string): bool</text><text fill="#000000" font-family="sans-serif" font-size="14" lengthAdjust="spacing" textLength="157" x="758.5" y="642.528">+getSelf(): SOL25Object</text><text fill="#000000" font-family="sans-serif" font-size="14" lengthAdjust="spacing" textLength="274" x="758.5" y="661.5959">+evaluateExpression(node): SOL25Object</text><text fill="#000000" font-family="sans-serif" font-size="14" lengthAdjust="spacing" textLength="679" x="758.5" y="680.6639">+sendMessage(receiver: SOL25Object, selector: string, arguments: array&lt;SOL25Object): SOL25Object</text><text fill="#000000" font-family="sans-serif" font-size="14" lengthAdjust="spacing" textLength="126" x="758.5" y="699.7318">+getNil(): SOL25Nil</text><text fill="#000000" font-family="sans-serif" font-size="14" lengthAdjust="spacing" textLength="150" x="758.5" y="718.7997">+getTrue(): SOL25True</text><text fill="#000000" font-family="sans-serif" font-size="14" lengthAdjust="spacing" textLength="156" x="758.5" y="737.8676">+getFalse(): SOL25False</text><text fill="#000000" font-family="sans-serif" font-size="14" lengthAdjust="spacing" textLength="75" x="758.5" y="756.9355">+getInput()</text><text fill="#000000" font-family="sans-serif" font-size="14" lengthAdjust="spacing" textLength="82" x="758.5" y="776.0034">+getStdout()</text><text fill="#000000" font-family="sans-serif" font-size="14" lengthAdjust="spacing" textLength="80" x="758.5" y="795.0714">+getStderr()</text></g><!--class VariableStorage--><g id="elem_VariableStorage"><rect codeLine="68" fill="#F1F1F1" height="124.2717" id="VariableStorage" rx="2.5" ry="2.5" style="stroke:#181818;stroke-width:0.5;" width="276" x="336" y="1129.5"/><ellipse cx="416.25" cy="1145.5" fill="#ADD1B2" rx="11" ry="11" style="stroke:#181818;stroke-width:1.0;"/><path d="M419.2188,1151.1406 Q418.6406,1151.4375 418,1151.5781 Q417.3594,1151.7344 416.6563,1151.7344 Q414.1563,1151.7344 412.8281,1150.0938 Q411.5156,1148.4375 411.5156,1145.3125 Q411.5156,1142.1875 412.8281,1140.5313 Q414.1563,1138.875 416.6563,1138.875 Q417.3594,1138.875 418,1139.0313 Q418.6563,1139.1875 419.2188,1139.4844 L419.2188,1142.2031 Q418.5938,1141.625 418,1141.3594 Q417.4063,1141.0781 416.7813,1141.0781 Q415.4375,1141.0781 414.75,1142.1563 Q414.0625,1143.2188 414.0625,1145.3125 Q414.0625,1147.4063 414.75,1148.4844 Q415.4375,1149.5469 416.7813,1149.5469 Q417.4063,1149.5469 418,1149.2813 Q418.5938,1149 419.2188,1148.4219 L419.2188,1151.1406 Z " fill="#000000"/><text fill="#000000" font-family="sans-serif" font-size="14" lengthAdjust="spacing" textLength="107" x="436.75" y="1150.932">VariableStorage</text><line style="stroke:#181818;stroke-width:0.5;" x1="337" x2="611" y1="1161.5" y2="1161.5"/><text fill="#000000" font-family="sans-serif" font-size="14" lengthAdjust="spacing" textLength="182" x="342" y="1180.4659">-parameters: array&lt;string&gt;</text><line style="stroke:#181818;stroke-width:0.5;" x1="337" x2="611" y1="1188.5679" y2="1188.5679"/><text fill="#000000" font-family="sans-serif" font-size="14" lengthAdjust="spacing" textLength="91" x="342" y="1207.5339">+__construct()</text><text fill="#000000" font-family="sans-serif" font-size="14" lengthAdjust="spacing" textLength="264" x="342" y="1226.6018">+set(name: string, value: SOL25Object )</text><text fill="#000000" font-family="sans-serif" font-size="14" lengthAdjust="spacing" textLength="220" x="342" y="1245.6697">+isParameter(name: string): bool</text></g><!--class BaseStorage--><g id="elem_BaseStorage"><rect codeLine="75" fill="#F1F1F1" height="124.2717" id="BaseStorage" rx="2.5" ry="2.5" style="stroke:#181818;stroke-width:0.5;" width="162" x="135" y="910.5"/><ellipse cx="170.7" cy="926.5" fill="#ADD1B2" rx="11" ry="11" style="stroke:#181818;stroke-width:1.0;"/><path d="M173.6688,932.1406 Q173.0906,932.4375 172.45,932.5781 Q171.8094,932.7344 171.1063,932.7344 Q168.6063,932.7344 167.2781,931.0938 Q165.9656,929.4375 165.9656,926.3125 Q165.9656,923.1875 167.2781,921.5313 Q168.6063,919.875 171.1063,919.875 Q171.8094,919.875 172.45,920.0313 Q173.1063,920.1875 173.6688,920.4844 L173.6688,923.2031 Q173.0438,922.625 172.45,922.3594 Q171.8563,922.0781 171.2313,922.0781 Q169.8875,922.0781 169.2,923.1563 Q168.5125,924.2188 168.5125,926.3125 Q168.5125,928.4063 169.2,929.4844 Q169.8875,930.5469 171.2313,930.5469 Q171.8563,930.5469 172.45,930.2813 Q173.0438,930 173.6688,929.4219 L173.6688,932.1406 Z " fill="#000000"/><text fill="#000000" font-family="sans-serif" font-size="14" lengthAdjust="spacing" textLength="84" x="189.3" y="931.932">BaseStorage</text><line style="stroke:#181818;stroke-width:0.5;" x1="136" x2="296" y1="942.5" y2="942.5"/><text fill="#000000" font-family="sans-serif" font-size="14" lengthAdjust="spacing" textLength="82" x="141" y="961.4659">#data: array</text><line style="stroke:#181818;stroke-width:0.5;" x1="136" x2="296" y1="969.5679" y2="969.5679"/><text fill="#000000" font-family="sans-serif" font-size="14" lengthAdjust="spacing" textLength="147" x="141" y="988.5339">+has(key: string): bool</text><text fill="#000000" font-family="sans-serif" font-size="14" lengthAdjust="spacing" textLength="108" x="141" y="1007.6018">+get(key: string)</text><text fill="#000000" font-family="sans-serif" font-size="14" lengthAdjust="spacing" textLength="150" x="141" y="1026.6697">+set(key: string, value)</text></g><!--class AttributeStorage--><g id="elem_AttributeStorage"><rect codeLine="82" fill="#F1F1F1" height="135.3396" id="AttributeStorage" rx="2.5" ry="2.5" style="stroke:#181818;stroke-width:0.5;" width="294" x="7" y="1124"/><ellipse cx="93.75" cy="1140" fill="#ADD1B2" rx="11" ry="11" style="stroke:#181818;stroke-width:1.0;"/><path d="M96.7188,1145.6406 Q96.1406,1145.9375 95.5,1146.0781 Q94.8594,1146.2344 94.1563,1146.2344 Q91.6563,1146.2344 90.3281,1144.5938 Q89.0156,1142.9375 89.0156,1139.8125 Q89.0156,1136.6875 90.3281,1135.0313 Q91.6563,1133.375 94.1563,1133.375 Q94.8594,1133.375 95.5,1133.5313 Q96.1563,1133.6875 96.7188,1133.9844 L96.7188,1136.7031 Q96.0938,1136.125 95.5,1135.8594 Q94.9063,1135.5781 94.2813,1135.5781 Q92.9375,1135.5781 92.25,1136.6563 Q91.5625,1137.7188 91.5625,1139.8125 Q91.5625,1141.9063 92.25,1142.9844 Q92.9375,1144.0469 94.2813,1144.0469 Q94.9063,1144.0469 95.5,1143.7813 Q96.0938,1143.5 96.7188,1142.9219 L96.7188,1145.6406 Z " fill="#000000"/><text fill="#000000" font-family="sans-serif" font-size="14" lengthAdjust="spacing" textLength="112" x="114.25" y="1145.432">AttributeStorage</text><line style="stroke:#181818;stroke-width:0.5;" x1="8" x2="300" y1="1156" y2="1156"/><text fill="#000000" font-family="sans-serif" font-size="14" lengthAdjust="spacing" textLength="264" x="13" y="1174.9659">+set(name: string, value: SOL25Object )</text><text fill="#000000" font-family="sans-serif" font-size="14" lengthAdjust="spacing" textLength="246" x="13" y="1194.0339">+copyFrom(source: AttributeStorage)</text><text fill="#000000" font-family="sans-serif" font-size="14" lengthAdjust="spacing" textLength="282" x="13" y="1213.1018">+deepCopyFrom(source: AttributeStorage)</text><text fill="#000000" font-family="sans-serif" font-size="14" lengthAdjust="spacing" textLength="102" x="13" y="1232.1697">+hasAny(): bool</text><text fill="#000000" font-family="sans-serif" font-size="14" lengthAdjust="spacing" textLength="49" x="13" y="1251.2376">+clear()</text></g><!--class SOL25Object--><g id="elem_SOL25Object"><rect fill="#F1F1F1" height="32" id="SOL25Object" rx="2.5" ry="2.5" style="stroke:#181818;stroke-width:0.5;" width="118" x="519" y="1338"/><ellipse cx="534" cy="1354" fill="#ADD1B2" rx="11" ry="11" style="stroke:#181818;stroke-width:1.0;"/><path d="M536.9688,1359.6406 Q536.3906,1359.9375 535.75,1360.0781 Q535.1094,1360.2344 534.4063,1360.2344 Q531.9063,1360.2344 530.5781,1358.5938 Q529.2656,1356.9375 529.2656,1353.8125 Q529.2656,1350.6875 530.5781,1349.0313 Q531.9063,1347.375 534.4063,1347.375 Q535.1094,1347.375 535.75,1347.5313 Q536.4063,1347.6875 536.9688,1347.9844 L536.9688,1350.7031 Q536.3438,1350.125 535.75,1349.8594 Q535.1563,1349.5781 534.5313,1349.5781 Q533.1875,1349.5781 532.5,1350.6563 Q531.8125,1351.7188 531.8125,1353.8125 Q531.8125,1355.9063 532.5,1356.9844 Q533.1875,1358.0469 534.5313,1358.0469 Q535.1563,1358.0469 535.75,1357.7813 Q536.3438,1357.5 536.9688,1356.9219 L536.9688,1359.6406 Z " fill="#000000"/><text fill="#000000" font-family="sans-serif" font-size="14" lengthAdjust="spacing" textLength="86" x="548" y="1359.432">SOL25Object</text></g><!--class SOL25Class--><g id="elem_SOL25Class"><rect fill="#F1F1F1" height="32" id="SOL25Class" rx="2.5" ry="2.5" style="stroke:#181818;stroke-width:0.5;" width="109" x="818.5" y="956.5"/><ellipse cx="833.5" cy="972.5" fill="#ADD1B2" rx="11" ry="11" style="stroke:#181818;stroke-width:1.0;"/><path d="M836.4688,978.1406 Q835.8906,978.4375 835.25,978.5781 Q834.6094,978.7344 833.9063,978.7344 Q831.4063,978.7344 830.0781,977.0938 Q828.7656,975.4375 828.7656,972.3125 Q828.7656,969.1875 830.0781,967.5313 Q831.4063,965.875 833.9063,965.875 Q834.6094,965.875 835.25,966.0313 Q835.9063,966.1875 836.4688,966.4844 L836.4688,969.2031 Q835.8438,968.625 835.25,968.3594 Q834.6563,968.0781 834.0313,968.0781 Q832.6875,968.0781 832,969.1563 Q831.3125,970.2188 831.3125,972.3125 Q831.3125,974.4063 832,975.4844 Q832.6875,976.5469 834.0313,976.5469 Q834.6563,976.5469 835.25,976.2813 Q835.8438,976 836.4688,975.4219 L836.4688,978.1406 Z " fill="#000000"/><text fill="#000000" font-family="sans-serif" font-size="14" lengthAdjust="spacing" textLength="77" x="847.5" y="977.932">SOL25Class</text></g><!--class SOL25Method--><g id="elem_SOL25Method"><rect fill="#F1F1F1" height="32" id="SOL25Method" rx="2.5" ry="2.5" style="stroke:#181818;stroke-width:0.5;" width="126" x="963" y="956.5"/><ellipse cx="978" cy="972.5" fill="#ADD1B2" rx="11" ry="11" style="stroke:#181818;stroke-width:1.0;"/><path d="M980.9688,978.1406 Q980.3906,978.4375 979.75,978.5781 Q979.1094,978.7344 978.4063,978.7344 Q975.9063,978.7344 974.5781,977.0938 Q973.2656,975.4375 973.2656,972.3125 Q973.2656,969.1875 974.5781,967.5313 Q975.9063,965.875 978.4063,965.875 Q979.1094,965.875 979.75,966.0313 Q980.4063,966.1875 980.9688,966.4844 L980.9688,969.2031 Q980.3438,968.625 979.75,968.3594 Q979.1563,968.0781 978.5313,968.0781 Q977.1875,968.0781 976.5,969.1563 Q975.8125,970.2188 975.8125,972.3125 Q975.8125,974.4063 976.5,975.4844 Q977.1875,976.5469 978.5313,976.5469 Q979.1563,976.5469 979.75,976.2813 Q980.3438,976 980.9688,975.4219 L980.9688,978.1406 Z " fill="#000000"/><text fill="#000000" font-family="sans-serif" font-size="14" lengthAdjust="spacing" textLength="94" x="992" y="977.932">SOL25Method</text></g><!--class SOL25Nil--><g id="elem_SOL25Nil"><rect fill="#F1F1F1" height="32" id="SOL25Nil" rx="2.5" ry="2.5" style="stroke:#181818;stroke-width:0.5;" width="93" x="1124.5" y="956.5"/><ellipse cx="1139.5" cy="972.5" fill="#ADD1B2" rx="11" ry="11" style="stroke:#181818;stroke-width:1.0;"/><path d="M1142.4688,978.1406 Q1141.8906,978.4375 1141.25,978.5781 Q1140.6094,978.7344 1139.9063,978.7344 Q1137.4063,978.7344 1136.0781,977.0938 Q1134.7656,975.4375 1134.7656,972.3125 Q1134.7656,969.1875 1136.0781,967.5313 Q1137.4063,965.875 1139.9063,965.875 Q1140.6094,965.875 1141.25,966.0313 Q1141.9063,966.1875 1142.4688,966.4844 L1142.4688,969.2031 Q1141.8438,968.625 1141.25,968.3594 Q1140.6563,968.0781 1140.0313,968.0781 Q1138.6875,968.0781 1138,969.1563 Q1137.3125,970.2188 1137.3125,972.3125 Q1137.3125,974.4063 1138,975.4844 Q1138.6875,976.5469 1140.0313,976.5469 Q1140.6563,976.5469 1141.25,976.2813 Q1141.8438,976 1142.4688,975.4219 L1142.4688,978.1406 Z " fill="#000000"/><text fill="#000000" font-family="sans-serif" font-size="14" lengthAdjust="spacing" textLength="61" x="1153.5" y="977.932">SOL25Nil</text></g><!--class SOL25True--><g id="elem_SOL25True"><rect fill="#F1F1F1" height="32" id="SOL25True" rx="2.5" ry="2.5" style="stroke:#181818;stroke-width:0.5;" width="105" x="1252.5" y="956.5"/><ellipse cx="1267.5" cy="972.5" fill="#ADD1B2" rx="11" ry="11" style="stroke:#181818;stroke-width:1.0;"/><path d="M1270.4688,978.1406 Q1269.8906,978.4375 1269.25,978.5781 Q1268.6094,978.7344 1267.9063,978.7344 Q1265.4063,978.7344 1264.0781,977.0938 Q1262.7656,975.4375 1262.7656,972.3125 Q1262.7656,969.1875 1264.0781,967.5313 Q1265.4063,965.875 1267.9063,965.875 Q1268.6094,965.875 1269.25,966.0313 Q1269.9063,966.1875 1270.4688,966.4844 L1270.4688,969.2031 Q1269.8438,968.625 1269.25,968.3594 Q1268.6563,968.0781 1268.0313,968.0781 Q1266.6875,968.0781 1266,969.1563 Q1265.3125,970.2188 1265.3125,972.3125 Q1265.3125,974.4063 1266,975.4844 Q1266.6875,976.5469 1268.0313,976.5469 Q1268.6563,976.5469 1269.25,976.2813 Q1269.8438,976 1270.4688,975.4219 L1270.4688,978.1406 Z " fill="#000000"/><text fill="#000000" font-family="sans-serif" font-size="14" lengthAdjust="spacing" textLength="73" x="1281.5" y="977.932">SOL25True</text></g><!--class SOL25False--><g id="elem_SOL25False"><rect fill="#F1F1F1" height="32" id="SOL25False" rx="2.5" ry="2.5" style="stroke:#181818;stroke-width:0.5;" width="108" x="1393" y="956.5"/><ellipse cx="1408" cy="972.5" fill="#ADD1B2" rx="11" ry="11" style="stroke:#181818;stroke-width:1.0;"/><path d="M1410.9688,978.1406 Q1410.3906,978.4375 1409.75,978.5781 Q1409.1094,978.7344 1408.4063,978.7344 Q1405.9063,978.7344 1404.5781,977.0938 Q1403.2656,975.4375 1403.2656,972.3125 Q1403.2656,969.1875 1404.5781,967.5313 Q1405.9063,965.875 1408.4063,965.875 Q1409.1094,965.875 1409.75,966.0313 Q1410.4063,966.1875 1410.9688,966.4844 L1410.9688,969.2031 Q1410.3438,968.625 1409.75,968.3594 Q1409.1563,968.0781 1408.5313,968.0781 Q1407.1875,968.0781 1406.5,969.1563 Q1405.8125,970.2188 1405.8125,972.3125 Q1405.8125,974.4063 1406.5,975.4844 Q1407.1875,976.5469 1408.5313,976.5469 Q1409.1563,976.5469 1409.75,976.2813 Q1410.3438,976 1410.9688,975.4219 L1410.9688,978.1406 Z " fill="#000000"/><text fill="#000000" font-family="sans-serif" font-size="14" lengthAdjust="spacing" textLength="76" x="1422" y="977.932">SOL25False</text></g><!--class SOL25Program--><g id="elem_SOL25Program"><rect fill="#F1F1F1" height="32" id="SOL25Program" rx="2.5" ry="2.5" style="stroke:#181818;stroke-width:0.5;" width="132" x="1479" y="458"/><ellipse cx="1494" cy="474" fill="#ADD1B2" rx="11" ry="11" style="stroke:#181818;stroke-width:1.0;"/><path d="M1496.9688,479.6406 Q1496.3906,479.9375 1495.75,480.0781 Q1495.1094,480.2344 1494.4063,480.2344 Q1491.9063,480.2344 1490.5781,478.5938 Q1489.2656,476.9375 1489.2656,473.8125 Q1489.2656,470.6875 1490.5781,469.0313 Q1491.9063,467.375 1494.4063,467.375 Q1495.1094,467.375 1495.75,467.5313 Q1496.4063,467.6875 1496.9688,467.9844 L1496.9688,470.7031 Q1496.3438,470.125 1495.75,469.8594 Q1495.1563,469.5781 1494.5313,469.5781 Q1493.1875,469.5781 1492.5,470.6563 Q1491.8125,471.7188 1491.8125,473.8125 Q1491.8125,475.9063 1492.5,476.9844 Q1493.1875,478.0469 1494.5313,478.0469 Q1495.1563,478.0469 1495.75,477.7813 Q1496.3438,477.5 1496.9688,476.9219 L1496.9688,479.6406 Z " fill="#000000"/><text fill="#000000" font-family="sans-serif" font-size="14" lengthAdjust="spacing" textLength="100" x="1508" y="479.432">SOL25Program</text></g><!--reverse link BaseStorage to AttributeStorage--><g id="link_BaseStorage_AttributeStorage"><path codeLine="91" d="M193.6158,1051.8277 C185.6658,1079.6577 181.18,1095.37 173.04,1123.85 " fill="none" id="BaseStorage-backto-AttributeStorage" style="stroke:#181818;stroke-width:1.0;"/><polygon fill="none" points="198.56,1034.52,187.8466,1050.1796,199.3851,1053.4757,198.56,1034.52" style="stroke:#181818;stroke-width:1.0;"/></g><!--reverse link BaseStorage to VariableStorage--><g id="link_BaseStorage_VariableStorage"><path codeLine="92" d="M302.3252,1046.1064 C337.5052,1075.6964 365.88,1099.56 401.1,1129.18 " fill="none" id="BaseStorage-backto-VariableStorage" style="stroke:#181818;stroke-width:1.0;"/><polygon fill="none" points="288.55,1034.52,298.4631,1050.6981,306.1873,1041.5146,288.55,1034.52" style="stroke:#181818;stroke-width:1.0;"/></g><!--reverse link Frame to VariableStorage--><g id="link_Frame_VariableStorage"><path codeLine="94" d="M553.0704,1072.9756 C538.0704,1095.2656 529.02,1108.72 515.18,1129.3 " fill="none" id="Frame-backto-VariableStorage" style="stroke:#181818;stroke-width:1.0;"/><polygon fill="#181818" points="559.77,1063.02,553.1016,1065.7646,553.0704,1072.9756,559.7387,1070.231,559.77,1063.02" style="stroke:#181818;stroke-width:1.0;"/></g><!--reverse link Frame to SOL25Object--><g id="link_Frame_SOL25Object"><path codeLine="95" d="M658.8636,1074.5949 C680.7836,1145.5149 694.03,1233.25 652,1308 C644.63,1321.11 631.73,1330.84 618.74,1337.84 " fill="none" id="Frame-backto-SOL25Object" style="stroke:#181818;stroke-width:1.0;"/><polygon fill="none" points="655.32,1063.13,653.2702,1070.0436,658.8636,1074.5949,660.9134,1067.6812,655.32,1063.13" style="stroke:#181818;stroke-width:1.0;"/><polygon fill="#000000" points="683.7534,1186.9101,679.4851,1195.4091,685.2959,1196.2947,683.7534,1186.9101" style="stroke:#000000;stroke-width:1.0;"/><text fill="#000000" font-family="sans-serif" font-size="13" lengthAdjust="spacing" textLength="44" x="692" y="1196.897">has self</text><text fill="#000000" font-family="sans-serif" font-size="13" lengthAdjust="spacing" textLength="7" x="625.0068" y="1326.0776">1</text></g><!--reverse link Environment to SOL25Class--><g id="link_Environment_SOL25Class"><path codeLine="97" d="M944.3777,813.9904 C913.7677,881.5504 892.1,929.36 879.97,956.11 " fill="none" id="Environment-backto-SOL25Class" style="stroke:#181818;stroke-width:1.0;"/><polygon fill="none" points="949.33,803.06,943.2104,806.8744,944.3777,813.9904,950.4973,810.176,949.33,803.06" style="stroke:#181818;stroke-width:1.0;"/><polygon fill="#000000" points="941.0639,838.2989,934.6534,845.3243,940.0071,847.7505,941.0639,838.2989" style="stroke:#000000;stroke-width:1.0;"/><text fill="#000000" font-family="sans-serif" font-size="13" lengthAdjust="spacing" textLength="46" x="948" y="847.897">registry</text><text fill="#000000" font-family="sans-serif" font-size="13" lengthAdjust="spacing" textLength="20" x="858.9284" y="944.5724">0..*</text></g><!--reverse link Environment to Frame--><g id="link_Environment_Frame"><path codeLine="98" d="M773.8378,811.7053 C746.5378,840.0653 729.05,858.23 706.39,881.77 " fill="none" id="Environment-backto-Frame" style="stroke:#181818;stroke-width:1.0;"/><polygon fill="none" points="782.16,803.06,775.1171,804.6086,773.8378,811.7053,780.8807,810.1567,782.16,803.06" style="stroke:#181818;stroke-width:1.0;"/><polygon fill="#000000" points="757.4676,839.2508,749.0773,843.729,753.3119,847.8054,757.4676,839.2508" style="stroke:#000000;stroke-width:1.0;"/><text fill="#000000" font-family="sans-serif" font-size="13" lengthAdjust="spacing" textLength="31" x="763" y="847.897">stack</text><text fill="#000000" font-family="sans-serif" font-size="13" lengthAdjust="spacing" textLength="20" x="692.9548" y="870.1493">0..*</text></g><!--reverse link Environment to SOL25Method--><g id="link_Environment_SOL25Method"><path codeLine="99" d="M1048.7074,814.9357 C1038.9074,882.4957 1032.11,929.36 1028.23,956.11 " fill="none" id="Environment-backto-SOL25Method" style="stroke:#181818;stroke-width:1.0;"/><polygon fill="none" points="1050.43,803.06,1045.6101,808.4236,1048.7074,814.9357,1053.5272,809.5721,1050.43,803.06" style="stroke:#181818;stroke-width:1.0;"/><polygon fill="#000000" points="1051.7177,837.9048,1047.5108,846.4343,1053.3278,847.2781,1051.7177,837.9048" style="stroke:#000000;stroke-width:1.0;"/><text fill="#000000" font-family="sans-serif" font-size="13" lengthAdjust="spacing" textLength="44" x="1060" y="847.897">current</text><text fill="#000000" font-family="sans-serif" font-size="13" lengthAdjust="spacing" textLength="20" x="1005.5591" y="944.5724">0..1</text></g><!--reverse link Environment to SOL25Nil--><g id="link_Environment_SOL25Nil"><path codeLine="100" d="M1147.9767,814.9322 C1157.9167,882.4922 1164.8,929.36 1168.74,956.11 " fill="none" id="Environment-backto-SOL25Nil" style="stroke:#181818;stroke-width:1.0;"/><polygon fill="none" points="1146.23,803.06,1143.146,809.5783,1147.9767,814.9322,1151.0608,808.4138,1146.23,803.06" style="stroke:#181818;stroke-width:1.0;"/><polygon fill="#000000" points="1158.2725,837.9062,1156.6809,847.2827,1162.4962,846.4274,1158.2725,837.9062" style="stroke:#000000;stroke-width:1.0;"/><text fill="#000000" font-family="sans-serif" font-size="13" lengthAdjust="spacing" textLength="56" x="1168" y="847.897">singleton</text><text fill="#000000" font-family="sans-serif" font-size="13" lengthAdjust="spacing" textLength="7" x="1159.76" y="944.5724">1</text></g><!--reverse link Environment to SOL25True--><g id="link_Environment_SOL25True"><path codeLine="101" d="M1239.3882,814.1358 C1267.5582,881.6958 1287.43,929.36 1298.58,956.11 " fill="none" id="Environment-backto-SOL25True" style="stroke:#181818;stroke-width:1.0;"/><polygon fill="none" points="1234.77,803.06,1233.3872,810.1373,1239.3882,814.1358,1240.771,807.0585,1234.77,803.06" style="stroke:#181818;stroke-width:1.0;"/><polygon fill="#000000" points="1258.0759,838.238,1258.844,847.7175,1264.2692,845.4557,1258.0759,838.238" style="stroke:#000000;stroke-width:1.0;"/><text fill="#000000" font-family="sans-serif" font-size="13" lengthAdjust="spacing" textLength="56" x="1269" y="847.897">singleton</text><text fill="#000000" font-family="sans-serif" font-size="13" lengthAdjust="spacing" textLength="7" x="1288.17" y="944.5724">1</text></g><!--reverse link Environment to SOL25False--><g id="link_Environment_SOL25False"><path codeLine="102" d="M1335.5008,812.8772 C1382.9908,880.4372 1417.38,929.36 1436.18,956.11 " fill="none" id="Environment-backto-SOL25False" style="stroke:#181818;stroke-width:1.0;"/><polygon fill="none" points="1328.6,803.06,1328.778,810.2689,1335.5008,812.8772,1335.3228,805.6683,1328.6,803.06" style="stroke:#181818;stroke-width:1.0;"/><polygon fill="#000000" points="1365.1247,838.7624,1367.9218,847.8524,1372.7305,844.4723,1365.1247,838.7624" style="stroke:#000000;stroke-width:1.0;"/><text fill="#000000" font-family="sans-serif" font-size="13" lengthAdjust="spacing" textLength="56" x="1377" y="847.897">singleton</text><text fill="#000000" font-family="sans-serif" font-size="13" lengthAdjust="spacing" textLength="7" x="1424.2575" y="944.5724">1</text></g><!--reverse link VariableStorage to SOL25Object--><g id="link_VariableStorage_SOL25Object"><path codeLine="104" d="M520.137,1263.7097 C539.887,1294.1797 555.64,1318.49 568.13,1337.77 " fill="none" id="VariableStorage-backto-SOL25Object" style="stroke:#181818;stroke-width:1.0;"/><polygon fill="none" points="513.61,1253.64,513.5169,1260.8505,520.137,1263.7097,520.23,1256.4992,513.61,1253.64" style="stroke:#181818;stroke-width:1.0;"/><polygon fill="#000000" points="550.2809,1294.657,552.7335,1303.8459,557.6662,1300.6494,550.2809,1294.657" style="stroke:#000000;stroke-width:1.0;"/><text fill="#000000" font-family="sans-serif" font-size="13" lengthAdjust="spacing" textLength="81" x="562" y="1303.897">holds params</text><text fill="#000000" font-family="sans-serif" font-size="13" lengthAdjust="spacing" textLength="20" x="541.2997" y="1326.2874">0..*</text></g><!--link Interpreter to Environment--><g id="link_Interpreter_Environment"><path codeLine="106" d="M1492.31,66.07 C1473.7,85.28 1451.1459,108.5617 1420.2459,140.4417 " fill="none" id="Interpreter-to-Environment" style="stroke:#181818;stroke-width:1.0;"/><polygon fill="#181818" points="1416.07,144.75,1425.2061,141.0714,1419.5499,141.1597,1419.4616,135.5035,1416.07,144.75" style="stroke:#181818;stroke-width:1.0;"/></g><!--link Interpreter to SOL25Program--><g id="link_Interpreter_SOL25Program"><path codeLine="107" d="M1521.64,66.07 C1526.46,150.09 1540.1461,388.4199 1543.7861,451.8299 " fill="none" id="Interpreter-to-SOL25Program" style="stroke:#181818;stroke-width:1.0;"/><polygon fill="#181818" points="1544.13,457.82,1547.6076,448.6056,1543.8435,452.8282,1539.6208,449.064,1544.13,457.82" style="stroke:#181818;stroke-width:1.0;"/><polygon fill="#000000" points="1530.2866,110.8448,1532.7023,101.6461,1526.8341,101.983,1530.2866,110.8448" style="stroke:#000000;stroke-width:1.0;"/><text fill="#000000" font-family="sans-serif" font-size="13" lengthAdjust="spacing" textLength="27" x="1539" y="110.897">uses</text></g><!--link BuiltinLoader to Environment--><g id="link_BuiltinLoader_Environment"><path codeLine="108" d="M1098,66.07 C1098,85.28 1098,106.87 1098,138.75 " fill="none" id="BuiltinLoader-to-Environment" style="stroke:#181818;stroke-width:1.0;"/><polygon fill="#181818" points="1098,144.75,1102,135.75,1098,139.75,1094,135.75,1098,144.75" style="stroke:#181818;stroke-width:1.0;"/></g><!--SRC=[nLPTJzim57tFhx3O0ocZ32Pj3rLL2H3LAi50TDeUaPlSDbuTEx8THlVnttVjE8aJMbQUrfV6FiV7zyFtseT4hvaegA8voQMGIQPa3iIe4gB30DCPJUKF9bPaIRdkOaAceA4W7qyxqugAjPq-ExNp6Kk1v90lGEaeQba9frgV6wFOeZGmIwIOivz0x18EIqEC98gjCaDIfY0nJ8h8IK5Uc4qhw6J851M1_8e8_eP40r-EoFps-ls7syLtNEpd7wbYTC51ZyXN_patKj4LEC9Ryl20PcYCGMBYWPzRWPcZNZnuhkZ0MYaMQCA8u6eCrbQota4-HiDu2PqbzUvCtzbeWG7Lts0X9O_-r16O2QGKoXAldX8eRC1yGBf-vQ0rUjnkdc0MHuG9tBDHkoWPDqnSIvg2QcJ6vOJZZ0Tr3EAHAIbo46P4hjh1OFokd6mrhP629qWmxN6Xv0hzyxxVLQDZibEvLGrccyGxnAQNAaKtOwTvwTWJprZQOCuDJTOroHsT6avAfL3m1amcKs-K6zGdowIoh8yJdkJc6m5GoWy4upCCDnL9dTJFZ7lC5bWF_69hpfjdQwm7JrtTrQitdwX8yTmMaB0bItmkAeFzcHsIp76-POo35PzALMisb4RfKkPO_zjqjjS3JLCNqjW5szlePeAAgHZRAi8XBV6-58Rbi1-VEISCemO24sxm_FAE7NvG- -nN5wNENB9ZTmX6LTEeZIvaKO433mJEL8TY5_n_6y0UJGgiEiRiwWcBK6ji3B7jt5qkQMmKwKtL8cBiky0UGNM8nxQzuhzKhVbKhKfRYDtAyuxiw9jO4esv-4rQn1xP1hA307F5q81k5A0pMv6TpktgjJU3XHe7ZQHt5JJDfAZZtdXLkJjveJWmm__CB7brRx-WkcVT6v9IGxrTNYwZEbx3PkS1wO21lS6qDpS8JdD1T_T_fQU9B3PJV5_4MfRADhQ-R4rC0OhBVSdeyBdOn5r74mxKf_UG38T3SW-SsijGPwpGTYOAmpd-ZPJ-1iyP_UT2L3quZhP05I8HEJWxw4HZP2rsZnCoZgBm_dBiqvEJeuEWZI5VmOfXU3V8tq6lThD9m2jj1wqseshkIFQtt3PwpRKLYQgOM0u6Nn8lK5s5xicj2hPBZle5s8z66px9KrtLfROBmuV5S3W9dmJFiF1zWL8bFXFmKT1zv_Gr_W80]--></g></svg>