<?xml version="1.0" encoding="us-ascii" standalone="no"?><svg xmlns="http://www.w3.org/2000/svg" xmlns:xlink="http://www.w3.org/1999/xlink" contentStyleType="text/css" height="934px" preserveAspectRatio="none" style="width:1784px;height:934px;background:#FFFFFF;" version="1.1" viewBox="0 0 1784 934" width="1784px" zoomAndPan="magnify"><defs/><g><!--class SOL25Method--><g id="elem_SOL25Method"><rect codeLine="10" fill="#F1F1F1" height="219.6113" id="SOL25Method" rx="2.5" ry="2.5" style="stroke:#181818;stroke-width:0.5;" width="517" x="492" y="7"/><ellipse cx="699.25" cy="23" fill="#ADD1B2" rx="11" ry="11" style="stroke:#181818;stroke-width:1.0;"/><path d="M702.2188,28.6406 Q701.6406,28.9375 701,29.0781 Q700.3594,29.2344 699.6563,29.2344 Q697.1563,29.2344 695.8281,27.5938 Q694.5156,25.9375 694.5156,22.8125 Q694.5156,19.6875 695.8281,18.0313 Q697.1563,16.375 699.6563,16.375 Q700.3594,16.375 701,16.5313 Q701.6563,16.6875 702.2188,16.9844 L702.2188,19.7031 Q701.5938,19.125 701,18.8594 Q700.4063,18.5781 699.7813,18.5781 Q698.4375,18.5781 697.75,19.6563 Q697.0625,20.7188 697.0625,22.8125 Q697.0625,24.9063 697.75,25.9844 Q698.4375,27.0469 699.7813,27.0469 Q700.4063,27.0469 701,26.7813 Q701.5938,26.5 702.2188,25.9219 L702.2188,28.6406 Z " fill="#000000"/><text fill="#000000" font-family="sans-serif" font-size="14" lengthAdjust="spacing" textLength="94" x="719.75" y="28.432">SOL25Method</text><line style="stroke:#181818;stroke-width:0.5;" x1="493" x2="1008" y1="39" y2="39"/><text fill="#000000" font-family="sans-serif" font-size="14" lengthAdjust="spacing" textLength="106" x="498" y="57.9659">-selector: string</text><text fill="#000000" font-family="sans-serif" font-size="14" lengthAdjust="spacing" textLength="125" x="498" y="77.0339">-block: SOL25Block</text><text fill="#000000" font-family="sans-serif" font-size="14" lengthAdjust="spacing" textLength="182" x="498" y="96.1018">-definingClass: SOL25Class</text><text fill="#000000" font-family="sans-serif" font-size="14" lengthAdjust="spacing" textLength="61" x="498" y="115.1697">-arity: int</text><line style="stroke:#181818;stroke-width:0.5;" x1="493" x2="1008" y1="123.2717" y2="123.2717"/><text fill="#000000" font-family="sans-serif" font-size="14" lengthAdjust="spacing" textLength="505" x="498" y="142.2376">+__construct(selector: string, block: SOL25Block, definingClass: SOL25Class)</text><text fill="#000000" font-family="sans-serif" font-size="14" lengthAdjust="spacing" textLength="140" x="498" y="161.3055">+getSelector(): string</text><text fill="#000000" font-family="sans-serif" font-size="14" lengthAdjust="spacing" textLength="158" x="498" y="180.3734">+getBlock(): SOL25Block</text><text fill="#000000" font-family="sans-serif" font-size="14" lengthAdjust="spacing" textLength="95" x="498" y="199.4414">+getArity(): int</text><text fill="#000000" font-family="sans-serif" font-size="14" lengthAdjust="spacing" textLength="216" x="498" y="218.5093">+getDefiningClass(): SOL25Class</text></g><!--class SOL25Assignment--><g id="elem_SOL25Assignment"><rect codeLine="22" fill="#F1F1F1" height="143.3396" id="SOL25Assignment" rx="2.5" ry="2.5" style="stroke:#181818;stroke-width:0.5;" width="433" x="484" y="667.5"/><ellipse cx="635.25" cy="683.5" fill="#ADD1B2" rx="11" ry="11" style="stroke:#181818;stroke-width:1.0;"/><path d="M638.2188,689.1406 Q637.6406,689.4375 637,689.5781 Q636.3594,689.7344 635.6563,689.7344 Q633.1563,689.7344 631.8281,688.0938 Q630.5156,686.4375 630.5156,683.3125 Q630.5156,680.1875 631.8281,678.5313 Q633.1563,676.875 635.6563,676.875 Q636.3594,676.875 637,677.0313 Q637.6563,677.1875 638.2188,677.4844 L638.2188,680.2031 Q637.5938,679.625 637,679.3594 Q636.4063,679.0781 635.7813,679.0781 Q634.4375,679.0781 633.75,680.1563 Q633.0625,681.2188 633.0625,683.3125 Q633.0625,685.4063 633.75,686.4844 Q634.4375,687.5469 635.7813,687.5469 Q636.4063,687.5469 637,687.2813 Q637.5938,687 638.2188,686.4219 L638.2188,689.1406 Z " fill="#000000"/><text fill="#000000" font-family="sans-serif" font-size="14" lengthAdjust="spacing" textLength="122" x="655.75" y="688.932">SOL25Assignment</text><line style="stroke:#181818;stroke-width:0.5;" x1="485" x2="916" y1="699.5" y2="699.5"/><text fill="#000000" font-family="sans-serif" font-size="14" lengthAdjust="spacing" textLength="71" x="490" y="718.4659">+order: int</text><text fill="#000000" font-family="sans-serif" font-size="14" lengthAdjust="spacing" textLength="150" x="490" y="737.5339">+variableName: string</text><text fill="#000000" font-family="sans-serif" font-size="14" lengthAdjust="spacing" textLength="117" x="490" y="756.6018">+expressionNode</text><line style="stroke:#181818;stroke-width:0.5;" x1="485" x2="916" y1="764.7038" y2="764.7038"/><text fill="#000000" font-family="sans-serif" font-size="14" lengthAdjust="spacing" textLength="421" x="490" y="783.6697">+__construct(order: int, variableName: string, expressionNode)</text><text fill="#000000" font-family="sans-serif" font-size="14" lengthAdjust="spacing" textLength="252" x="490" y="802.7376">+execute(environment: Environment )</text></g><!--class SOL25ExpressionFactory--><g id="elem_SOL25ExpressionFactory"><rect codeLine="30" fill="#F1F1F1" height="154.4075" id="SOL25ExpressionFactory" rx="2.5" ry="2.5" style="stroke:#181818;stroke-width:0.5;" width="518" x="1259.5" y="662"/><ellipse cx="1432.75" cy="678" fill="#ADD1B2" rx="11" ry="11" style="stroke:#181818;stroke-width:1.0;"/><path d="M1435.7188,683.6406 Q1435.1406,683.9375 1434.5,684.0781 Q1433.8594,684.2344 1433.1563,684.2344 Q1430.6563,684.2344 1429.3281,682.5938 Q1428.0156,680.9375 1428.0156,677.8125 Q1428.0156,674.6875 1429.3281,673.0313 Q1430.6563,671.375 1433.1563,671.375 Q1433.8594,671.375 1434.5,671.5313 Q1435.1563,671.6875 1435.7188,671.9844 L1435.7188,674.7031 Q1435.0938,674.125 1434.5,673.8594 Q1433.9063,673.5781 1433.2813,673.5781 Q1431.9375,673.5781 1431.25,674.6563 Q1430.5625,675.7188 1430.5625,677.8125 Q1430.5625,679.9063 1431.25,680.9844 Q1431.9375,682.0469 1433.2813,682.0469 Q1433.9063,682.0469 1434.5,681.7813 Q1435.0938,681.5 1435.7188,680.9219 L1435.7188,683.6406 Z " fill="#000000"/><text fill="#000000" font-family="sans-serif" font-size="14" lengthAdjust="spacing" textLength="163" x="1453.25" y="683.432">SOL25ExpressionFactory</text><line style="stroke:#181818;stroke-width:0.5;" x1="1260.5" x2="1776.5" y1="694" y2="694"/><text fill="#000000" font-family="sans-serif" font-size="14" lengthAdjust="spacing" textLength="5" x="1265.5" y="712.9659">-</text><text fill="#000000" font-family="sans-serif" font-size="14" lengthAdjust="spacing" text-decoration="underline" textLength="235" x="1270.5" y="712.9659">evaluateLiteral(node): SOL25Object</text><text fill="#000000" font-family="sans-serif" font-size="14" lengthAdjust="spacing" textLength="5" x="1265.5" y="732.0339">-</text><text fill="#000000" font-family="sans-serif" font-size="14" lengthAdjust="spacing" text-decoration="underline" textLength="440" x="1270.5" y="732.0339">evaluateVariable(node, environment: Environment ): SOL25Object</text><text fill="#000000" font-family="sans-serif" font-size="14" lengthAdjust="spacing" textLength="5" x="1265.5" y="751.1018">-</text><text fill="#000000" font-family="sans-serif" font-size="14" lengthAdjust="spacing" text-decoration="underline" textLength="419" x="1270.5" y="751.1018">evaluateSend(node, environment: Environment ): SOL25Object</text><text fill="#000000" font-family="sans-serif" font-size="14" lengthAdjust="spacing" textLength="5" x="1265.5" y="770.1697">-</text><text fill="#000000" font-family="sans-serif" font-size="14" lengthAdjust="spacing" text-decoration="underline" textLength="442" x="1270.5" y="770.1697">evaluateReceiver(node, environment: Environment ): SOL25Object</text><text fill="#000000" font-family="sans-serif" font-size="14" lengthAdjust="spacing" textLength="5" x="1265.5" y="789.2376">-</text><text fill="#000000" font-family="sans-serif" font-size="14" lengthAdjust="spacing" text-decoration="underline" textLength="497" x="1270.5" y="789.2376">evaluateBlockLiteral(node, environment: Environment ): SOL25BlockObject</text><text fill="#000000" font-family="sans-serif" font-size="14" lengthAdjust="spacing" textLength="8" x="1265.5" y="808.3055">+</text><text fill="#000000" font-family="sans-serif" font-size="14" lengthAdjust="spacing" text-decoration="underline" textLength="385" x="1273.5" y="808.3055">evaluate(node, environment: Environment ): SOL25Object</text></g><!--class SOL25Class--><g id="elem_SOL25Class"><rect codeLine="39" fill="#F1F1F1" height="276.815" id="SOL25Class" rx="2.5" ry="2.5" style="stroke:#181818;stroke-width:0.5;" width="522" x="631.5" y="306"/><ellipse cx="849.75" cy="322" fill="#ADD1B2" rx="11" ry="11" style="stroke:#181818;stroke-width:1.0;"/><path d="M852.7188,327.6406 Q852.1406,327.9375 851.5,328.0781 Q850.8594,328.2344 850.1563,328.2344 Q847.6563,328.2344 846.3281,326.5938 Q845.0156,324.9375 845.0156,321.8125 Q845.0156,318.6875 846.3281,317.0313 Q847.6563,315.375 850.1563,315.375 Q850.8594,315.375 851.5,315.5313 Q852.1563,315.6875 852.7188,315.9844 L852.7188,318.7031 Q852.0938,318.125 851.5,317.8594 Q850.9063,317.5781 850.2813,317.5781 Q848.9375,317.5781 848.25,318.6563 Q847.5625,319.7188 847.5625,321.8125 Q847.5625,323.9063 848.25,324.9844 Q848.9375,326.0469 850.2813,326.0469 Q850.9063,326.0469 851.5,325.7813 Q852.0938,325.5 852.7188,324.9219 L852.7188,327.6406 Z " fill="#000000"/><text fill="#000000" font-family="sans-serif" font-size="14" lengthAdjust="spacing" textLength="77" x="870.25" y="327.432">SOL25Class</text><line style="stroke:#181818;stroke-width:0.5;" x1="632.5" x2="1152.5" y1="338" y2="338"/><text fill="#000000" font-family="sans-serif" font-size="14" lengthAdjust="spacing" textLength="91" x="637.5" y="356.9659">-name: string</text><text fill="#000000" font-family="sans-serif" font-size="14" lengthAdjust="spacing" textLength="138" x="637.5" y="376.0339">-parentName: string</text><text fill="#000000" font-family="sans-serif" font-size="14" lengthAdjust="spacing" textLength="217" x="637.5" y="395.1018">-methods: array&lt;SOL25Method&gt;</text><text fill="#000000" font-family="sans-serif" font-size="14" lengthAdjust="spacing" textLength="185" x="637.5" y="414.1697">-environment: Environment</text><line style="stroke:#181818;stroke-width:0.5;" x1="632.5" x2="1152.5" y1="422.2717" y2="422.2717"/><text fill="#000000" font-family="sans-serif" font-size="14" lengthAdjust="spacing" textLength="101" x="637.5" y="441.2376">-loadMethods()</text><text fill="#000000" font-family="sans-serif" font-size="14" lengthAdjust="spacing" textLength="510" x="637.5" y="460.3055">+__construct(name: string, parentName: string, environment: Environment )</text><text fill="#000000" font-family="sans-serif" font-size="14" lengthAdjust="spacing" textLength="126" x="637.5" y="479.3734">+getName(): string</text><text fill="#000000" font-family="sans-serif" font-size="14" lengthAdjust="spacing" textLength="170" x="637.5" y="498.4414">+getParentName(): string</text><text fill="#000000" font-family="sans-serif" font-size="14" lengthAdjust="spacing" textLength="250" x="637.5" y="517.5093">+getMethods(): array&lt;SOL25Method&gt;</text><text fill="#000000" font-family="sans-serif" font-size="14" lengthAdjust="spacing" textLength="329" x="637.5" y="536.5772">+findOwnMethod(selector: string): SOL25Method</text><text fill="#000000" font-family="sans-serif" font-size="14" lengthAdjust="spacing" textLength="298" x="637.5" y="555.6451">+findMethod(selector: string): SOL25Method</text><text fill="#000000" font-family="sans-serif" font-size="14" lengthAdjust="spacing" textLength="356" x="637.5" y="574.713">+findMethodInParent(selector: string): SOL25Method</text></g><!--class SOL25Program--><g id="elem_SOL25Program"><rect codeLine="54" fill="#F1F1F1" height="200.5433" id="SOL25Program" rx="2.5" ry="2.5" style="stroke:#181818;stroke-width:0.5;" width="325" x="1044" y="16.5"/><ellipse cx="1152.25" cy="32.5" fill="#ADD1B2" rx="11" ry="11" style="stroke:#181818;stroke-width:1.0;"/><path d="M1155.2188,38.1406 Q1154.6406,38.4375 1154,38.5781 Q1153.3594,38.7344 1152.6563,38.7344 Q1150.1563,38.7344 1148.8281,37.0938 Q1147.5156,35.4375 1147.5156,32.3125 Q1147.5156,29.1875 1148.8281,27.5313 Q1150.1563,25.875 1152.6563,25.875 Q1153.3594,25.875 1154,26.0313 Q1154.6563,26.1875 1155.2188,26.4844 L1155.2188,29.2031 Q1154.5938,28.625 1154,28.3594 Q1153.4063,28.0781 1152.7813,28.0781 Q1151.4375,28.0781 1150.75,29.1563 Q1150.0625,30.2188 1150.0625,32.3125 Q1150.0625,34.4063 1150.75,35.4844 Q1151.4375,36.5469 1152.7813,36.5469 Q1153.4063,36.5469 1154,36.2813 Q1154.5938,36 1155.2188,35.4219 L1155.2188,38.1406 Z " fill="#000000"/><text fill="#000000" font-family="sans-serif" font-size="14" lengthAdjust="spacing" textLength="100" x="1172.75" y="37.932">SOL25Program</text><line style="stroke:#181818;stroke-width:0.5;" x1="1045" x2="1368" y1="48.5" y2="48.5"/><text fill="#000000" font-family="sans-serif" font-size="14" lengthAdjust="spacing" textLength="35" x="1050" y="67.4659">-dom</text><text fill="#000000" font-family="sans-serif" font-size="14" lengthAdjust="spacing" textLength="185" x="1050" y="86.5339">-environment: Environment</text><text fill="#000000" font-family="sans-serif" font-size="14" lengthAdjust="spacing" textLength="189" x="1050" y="105.6018">-classes: array&lt;SOL25Class&gt;</text><text fill="#000000" font-family="sans-serif" font-size="14" lengthAdjust="spacing" textLength="153" x="1050" y="124.6697">-mainClassFound: bool</text><line style="stroke:#181818;stroke-width:0.5;" x1="1045" x2="1368" y1="132.7717" y2="132.7717"/><text fill="#000000" font-family="sans-serif" font-size="14" lengthAdjust="spacing" textLength="313" x="1050" y="151.7376">+__construct(dom, environment: Environment )</text><text fill="#000000" font-family="sans-serif" font-size="14" lengthAdjust="spacing" textLength="95" x="1050" y="170.8055">+loadClasses()</text><text fill="#000000" font-family="sans-serif" font-size="14" lengthAdjust="spacing" textLength="138" x="1050" y="189.8734">+validateEntryPoint()</text><text fill="#000000" font-family="sans-serif" font-size="14" lengthAdjust="spacing" textLength="224" x="1050" y="208.9414">+getClasses(): array&lt;SOL25Class&gt;</text></g><!--class SOL25Parameter--><g id="elem_SOL25Parameter"><rect codeLine="65" fill="#F1F1F1" height="105.2038" id="SOL25Parameter" rx="2.5" ry="2.5" style="stroke:#181818;stroke-width:0.5;" width="260" x="76.5" y="686.5"/><ellipse cx="146.25" cy="702.5" fill="#ADD1B2" rx="11" ry="11" style="stroke:#181818;stroke-width:1.0;"/><path d="M149.2188,708.1406 Q148.6406,708.4375 148,708.5781 Q147.3594,708.7344 146.6563,708.7344 Q144.1563,708.7344 142.8281,707.0938 Q141.5156,705.4375 141.5156,702.3125 Q141.5156,699.1875 142.8281,697.5313 Q144.1563,695.875 146.6563,695.875 Q147.3594,695.875 148,696.0313 Q148.6563,696.1875 149.2188,696.4844 L149.2188,699.2031 Q148.5938,698.625 148,698.3594 Q147.4063,698.0781 146.7813,698.0781 Q145.4375,698.0781 144.75,699.1563 Q144.0625,700.2188 144.0625,702.3125 Q144.0625,704.4063 144.75,705.4844 Q145.4375,706.5469 146.7813,706.5469 Q147.4063,706.5469 148,706.2813 Q148.5938,706 149.2188,705.4219 L149.2188,708.1406 Z " fill="#000000"/><text fill="#000000" font-family="sans-serif" font-size="14" lengthAdjust="spacing" textLength="112" x="166.75" y="707.932">SOL25Parameter</text><line style="stroke:#181818;stroke-width:0.5;" x1="77.5" x2="335.5" y1="718.5" y2="718.5"/><text fill="#000000" font-family="sans-serif" font-size="14" lengthAdjust="spacing" textLength="94" x="82.5" y="737.4659">+name: string</text><text fill="#000000" font-family="sans-serif" font-size="14" lengthAdjust="spacing" textLength="71" x="82.5" y="756.5339">+order: int</text><line style="stroke:#181818;stroke-width:0.5;" x1="77.5" x2="335.5" y1="764.6358" y2="764.6358"/><text fill="#000000" font-family="sans-serif" font-size="14" lengthAdjust="spacing" textLength="248" x="82.5" y="783.6018">+__construct(name: string, order: int)</text></g><!--class SOL25Block--><g id="elem_SOL25Block"><rect codeLine="71" fill="#F1F1F1" height="219.6113" id="SOL25Block" rx="2.5" ry="2.5" style="stroke:#181818;stroke-width:0.5;" width="589" x="7" y="334.5"/><ellipse cx="258.75" cy="350.5" fill="#ADD1B2" rx="11" ry="11" style="stroke:#181818;stroke-width:1.0;"/><path d="M261.7188,356.1406 Q261.1406,356.4375 260.5,356.5781 Q259.8594,356.7344 259.1563,356.7344 Q256.6563,356.7344 255.3281,355.0938 Q254.0156,353.4375 254.0156,350.3125 Q254.0156,347.1875 255.3281,345.5313 Q256.6563,343.875 259.1563,343.875 Q259.8594,343.875 260.5,344.0313 Q261.1563,344.1875 261.7188,344.4844 L261.7188,347.2031 Q261.0938,346.625 260.5,346.3594 Q259.9063,346.0781 259.2813,346.0781 Q257.9375,346.0781 257.25,347.1563 Q256.5625,348.2188 256.5625,350.3125 Q256.5625,352.4063 257.25,353.4844 Q257.9375,354.5469 259.2813,354.5469 Q259.9063,354.5469 260.5,354.2813 Q261.0938,354 261.7188,353.4219 L261.7188,356.1406 Z " fill="#000000"/><text fill="#000000" font-family="sans-serif" font-size="14" lengthAdjust="spacing" textLength="77" x="279.25" y="355.932">SOL25Block</text><line style="stroke:#181818;stroke-width:0.5;" x1="8" x2="595" y1="366.5" y2="366.5"/><text fill="#000000" font-family="sans-serif" font-size="14" lengthAdjust="spacing" textLength="64" x="13" y="385.4659">+arity: int</text><text fill="#000000" font-family="sans-serif" font-size="14" lengthAdjust="spacing" textLength="254" x="13" y="404.5339">-parameters: array&lt;SOL25Parameter&gt;</text><text fill="#000000" font-family="sans-serif" font-size="14" lengthAdjust="spacing" textLength="272" x="13" y="423.6018">-assignments: array&lt;SOL25Assignment&gt;</text><text fill="#000000" font-family="sans-serif" font-size="14" lengthAdjust="spacing" textLength="76" x="13" y="442.6697">-blockNode</text><line style="stroke:#181818;stroke-width:0.5;" x1="8" x2="595" y1="450.7717" y2="450.7717"/><text fill="#000000" font-family="sans-serif" font-size="14" lengthAdjust="spacing" textLength="242" x="13" y="469.7376">-parseParametersAndAssignments()</text><text fill="#000000" font-family="sans-serif" font-size="14" lengthAdjust="spacing" textLength="226" x="13" y="488.8055">+__construct(blockNode, arity: int)</text><text fill="#000000" font-family="sans-serif" font-size="14" lengthAdjust="spacing" textLength="577" x="13" y="507.8734">+execute(environment: Environment , arguments: array&lt;SOL25Object &gt;): SOL25Object</text><text fill="#000000" font-family="sans-serif" font-size="14" lengthAdjust="spacing" textLength="286" x="13" y="526.9414">+getParameters(): array&lt;SOL25Parameter&gt;</text><text fill="#000000" font-family="sans-serif" font-size="14" lengthAdjust="spacing" textLength="95" x="13" y="546.0093">+getArity(): int</text></g><!--class Environment--><g id="elem_Environment"><rect fill="#F1F1F1" height="32" id="Environment" rx="2.5" ry="2.5" style="stroke:#181818;stroke-width:0.5;" width="118" x="928.5" y="895"/><ellipse cx="943.5" cy="911" fill="#ADD1B2" rx="11" ry="11" style="stroke:#181818;stroke-width:1.0;"/><path d="M946.4688,916.6406 Q945.8906,916.9375 945.25,917.0781 Q944.6094,917.2344 943.9063,917.2344 Q941.4063,917.2344 940.0781,915.5938 Q938.7656,913.9375 938.7656,910.8125 Q938.7656,907.6875 940.0781,906.0313 Q941.4063,904.375 943.9063,904.375 Q944.6094,904.375 945.25,904.5313 Q945.9063,904.6875 946.4688,904.9844 L946.4688,907.7031 Q945.8438,907.125 945.25,906.8594 Q944.6563,906.5781 944.0313,906.5781 Q942.6875,906.5781 942,907.6563 Q941.3125,908.7188 941.3125,910.8125 Q941.3125,912.9063 942,913.9844 Q942.6875,915.0469 944.0313,915.0469 Q944.6563,915.0469 945.25,914.7813 Q945.8438,914.5 946.4688,913.9219 L946.4688,916.6406 Z " fill="#000000"/><text fill="#000000" font-family="sans-serif" font-size="14" lengthAdjust="spacing" textLength="86" x="957.5" y="916.432">Environment</text></g><!--class SOL25Object--><g id="elem_SOL25Object"><rect fill="#F1F1F1" height="32" id="SOL25Object" rx="2.5" ry="2.5" style="stroke:#181818;stroke-width:0.5;" width="118" x="1373.5" y="895"/><ellipse cx="1388.5" cy="911" fill="#ADD1B2" rx="11" ry="11" style="stroke:#181818;stroke-width:1.0;"/><path d="M1391.4688,916.6406 Q1390.8906,916.9375 1390.25,917.0781 Q1389.6094,917.2344 1388.9063,917.2344 Q1386.4063,917.2344 1385.0781,915.5938 Q1383.7656,913.9375 1383.7656,910.8125 Q1383.7656,907.6875 1385.0781,906.0313 Q1386.4063,904.375 1388.9063,904.375 Q1389.6094,904.375 1390.25,904.5313 Q1390.9063,904.6875 1391.4688,904.9844 L1391.4688,907.7031 Q1390.8438,907.125 1390.25,906.8594 Q1389.6563,906.5781 1389.0313,906.5781 Q1387.6875,906.5781 1387,907.6563 Q1386.3125,908.7188 1386.3125,910.8125 Q1386.3125,912.9063 1387,913.9844 Q1387.6875,915.0469 1389.0313,915.0469 Q1389.6563,915.0469 1390.25,914.7813 Q1390.8438,914.5 1391.4688,913.9219 L1391.4688,916.6406 Z " fill="#000000"/><text fill="#000000" font-family="sans-serif" font-size="14" lengthAdjust="spacing" textLength="86" x="1402.5" y="916.432">SOL25Object</text></g><!--class SOL25BlockObject--><g id="elem_SOL25BlockObject"><rect fill="#F1F1F1" height="32" id="SOL25BlockObject" rx="2.5" ry="2.5" style="stroke:#181818;stroke-width:0.5;" width="153" x="1527" y="895"/><ellipse cx="1542" cy="911" fill="#ADD1B2" rx="11" ry="11" style="stroke:#181818;stroke-width:1.0;"/><path d="M1544.9688,916.6406 Q1544.3906,916.9375 1543.75,917.0781 Q1543.1094,917.2344 1542.4063,917.2344 Q1539.9063,917.2344 1538.5781,915.5938 Q1537.2656,913.9375 1537.2656,910.8125 Q1537.2656,907.6875 1538.5781,906.0313 Q1539.9063,904.375 1542.4063,904.375 Q1543.1094,904.375 1543.75,904.5313 Q1544.4063,904.6875 1544.9688,904.9844 L1544.9688,907.7031 Q1544.3438,907.125 1543.75,906.8594 Q1543.1563,906.5781 1542.5313,906.5781 Q1541.1875,906.5781 1540.5,907.6563 Q1539.8125,908.7188 1539.8125,910.8125 Q1539.8125,912.9063 1540.5,913.9844 Q1541.1875,915.0469 1542.5313,915.0469 Q1543.1563,915.0469 1543.75,914.7813 Q1544.3438,914.5 1544.9688,913.9219 L1544.9688,916.6406 Z " fill="#000000"/><text fill="#000000" font-family="sans-serif" font-size="14" lengthAdjust="spacing" textLength="121" x="1556" y="916.432">SOL25BlockObject</text></g><!--reverse link SOL25Method to SOL25Block--><g id="link_SOL25Method_SOL25Block"><path codeLine="84" d="M590.3341,234.1128 C542.6841,268.6528 499.72,299.8 452.06,334.35 " fill="none" id="SOL25Method-backto-SOL25Block" style="stroke:#181818;stroke-width:1.0;"/><polygon fill="#181818" points="600.05,227.07,592.8444,227.3527,590.3341,234.1128,597.5396,233.83,600.05,227.07" style="stroke:#181818;stroke-width:1.0;"/><polygon fill="#000000" points="554.4518,269.7876,563.5,266.8583,560.0501,262.0994,554.4518,269.7876" style="stroke:#000000;stroke-width:1.0;"/><text fill="#000000" font-family="sans-serif" font-size="13" lengthAdjust="spacing" textLength="55" x="567.5" y="271.897">has body</text></g><!--reverse link SOL25Class to SOL25Method--><g id="link_SOL25Class_SOL25Method"><path codeLine="85" d="M860.9961,294.1221 C855.8561,277.4421 853.42,272.36 846.5,257 C841.98,246.97 836.73,236.9 831.05,227.01 " fill="none" id="SOL25Class-backto-SOL25Method" style="stroke:#181818;stroke-width:1.0;"/><polygon fill="#181818" points="864.53,305.59,866.5857,298.6781,860.9961,294.1221,858.9404,301.034,864.53,305.59" style="stroke:#181818;stroke-width:1.0;"/><polygon fill="#000000" points="856.4626,262.2869,857.4644,271.7446,862.8322,269.3495,856.4626,262.2869" style="stroke:#000000;stroke-width:1.0;"/><text fill="#000000" font-family="sans-serif" font-size="13" lengthAdjust="spacing" textLength="43" x="867.5" y="271.897">defines</text><text fill="#000000" font-family="sans-serif" font-size="13" lengthAdjust="spacing" textLength="20" x="815.5696" y="248.5341">0..*</text></g><!--reverse link SOL25Method to SOL25Class--><g id="link_SOL25Method_SOL25Class"><path codeLine="90" d="M753.9097,239.2328 C756.4497,255.8828 758.57,260.73 764.5,276 C768.41,286.06 773.12,296.03 778.39,305.8 " fill="none" id="SOL25Method-backto-SOL25Class" style="stroke:#181818;stroke-width:1.0;"/><polygon fill="none" points="752.1,227.37,749.0506,233.9046,753.9097,239.2328,756.9591,232.6981,752.1,227.37" style="stroke:#181818;stroke-width:1.0;"/><polygon fill="#000000" points="767.7742,262.1603,768.1379,271.6639,773.6545,269.6351,767.7742,262.1603" style="stroke:#000000;stroke-width:1.0;"/><text fill="#000000" font-family="sans-serif" font-size="13" lengthAdjust="spacing" textLength="59" x="778.5" y="271.897">defined in</text><text fill="#000000" font-family="sans-serif" font-size="13" lengthAdjust="spacing" textLength="7" x="744.9842" y="248.544">1</text></g><!--reverse link SOL25Program to SOL25Class--><g id="link_SOL25Program_SOL25Class"><path codeLine="86" d="M1101.827,226.5049 C1075.047,254.2549 1053.83,276.26 1025.37,305.77 " fill="none" id="SOL25Program-backto-SOL25Class" style="stroke:#181818;stroke-width:1.0;"/><polygon fill="#181818" points="1110.16,217.87,1103.1152,219.4098,1101.827,226.5049,1108.8718,224.9651,1110.16,217.87" style="stroke:#181818;stroke-width:1.0;"/><polygon fill="#000000" points="1069.0288,270.4517,1077.4235,265.9819,1073.193,261.9013,1069.0288,270.4517" style="stroke:#000000;stroke-width:1.0;"/><text fill="#000000" font-family="sans-serif" font-size="13" lengthAdjust="spacing" textLength="43" x="1081.5" y="271.897">defines</text><text fill="#000000" font-family="sans-serif" font-size="13" lengthAdjust="spacing" textLength="20" x="1012.4734" y="294.181">0..*</text></g><!--reverse link SOL25Block to SOL25Parameter--><g id="link_SOL25Block_SOL25Parameter"><path codeLine="87" d="M262.2834,566.2432 C247.6334,611.3532 235.06,650.07 223.24,686.46 " fill="none" id="SOL25Block-backto-SOL25Parameter" style="stroke:#181818;stroke-width:1.0;"/><polygon fill="#181818" points="265.99,554.83,260.3323,559.3011,262.2834,566.2432,267.9411,561.7721,265.99,554.83" style="stroke:#181818;stroke-width:1.0;"/><polygon fill="#000000" points="248.9555,627.6085,254.5447,619.9136,248.9543,618.0979,248.9555,627.6085" style="stroke:#000000;stroke-width:1.0;"/><text fill="#000000" font-family="sans-serif" font-size="13" lengthAdjust="spacing" textLength="43" x="259.5" y="627.897">defines</text><text fill="#000000" font-family="sans-serif" font-size="13" lengthAdjust="spacing" textLength="20" x="204.1878" y="674.8086">0..*</text></g><!--reverse link SOL25Block to SOL25Assignment--><g id="link_SOL25Block_SOL25Assignment"><path codeLine="88" d="M460.0377,561.7152 C511.5277,599.4652 558.15,633.65 604.29,667.47 " fill="none" id="SOL25Block-backto-SOL25Assignment" style="stroke:#181818;stroke-width:1.0;"/><polygon fill="#181818" points="450.36,554.62,452.8338,561.3935,460.0377,561.7152,457.5639,554.9417,450.36,554.62" style="stroke:#181818;stroke-width:1.0;"/><polygon fill="#000000" points="557.5324,625.8093,551.9753,618.0911,548.5,622.8315,557.5324,625.8093" style="stroke:#000000;stroke-width:1.0;"/><text fill="#000000" font-family="sans-serif" font-size="13" lengthAdjust="spacing" textLength="43" x="562.5" y="627.897">defines</text><text fill="#000000" font-family="sans-serif" font-size="13" lengthAdjust="spacing" textLength="20" x="572.6733" y="655.6338">0..*</text></g><!--reverse link SOL25Class to Environment--><g id="link_SOL25Class_Environment"><path codeLine="91" d="M923.0845,595.0466 C946.3345,708.7266 974.62,847.04 984.38,894.75 " fill="none" id="SOL25Class-backto-Environment" style="stroke:#181818;stroke-width:1.0;"/><polygon fill="none" points="920.68,583.29,917.9634,589.9698,923.0845,595.0466,925.8011,588.3668,920.68,583.29" style="stroke:#181818;stroke-width:1.0;"/><polygon fill="#000000" points="971.4981,734.4544,970.4312,743.9049,976.1898,742.7272,971.4981,734.4544" style="stroke:#000000;stroke-width:1.0;"/><text fill="#000000" font-family="sans-serif" font-size="13" lengthAdjust="spacing" textLength="27" x="981.5" y="744.397">uses</text><text fill="#000000" font-family="sans-serif" font-size="13" lengthAdjust="spacing" textLength="7" x="914.9526" y="604.8046">1</text></g><!--reverse link SOL25Program to Environment--><g id="link_SOL25Program_Environment"><path codeLine="92" d="M1211.5756,229.7979 C1213.3756,325.5379 1208.37,461.15 1171.5,583 C1131.88,713.93 1033.45,850.1 999.35,894.8 " fill="none" id="SOL25Program-backto-Environment" style="stroke:#181818;stroke-width:1.0;"/><polygon fill="none" points="1211.35,217.8,1207.4635,223.8741,1211.5756,229.7979,1215.4621,223.7237,1211.35,217.8" style="stroke:#181818;stroke-width:1.0;"/><polygon fill="#000000" points="1166.0201,618.0897,1160.4704,625.8131,1166.07,627.6001,1166.0201,618.0897" style="stroke:#000000;stroke-width:1.0;"/><text fill="#000000" font-family="sans-serif" font-size="13" lengthAdjust="spacing" textLength="27" x="1173.5" y="627.897">uses</text><text fill="#000000" font-family="sans-serif" font-size="13" lengthAdjust="spacing" textLength="7" x="1204.4407" y="239.0797">1</text></g><!--link SOL25Assignment to Environment--><g id="link_SOL25Assignment_Environment"><path codeLine="94" d="M819.72,810.62 C872.55,841.91 924.7274,872.8226 956.8274,891.8326 " fill="none" id="SOL25Assignment-to-Environment" style="stroke:#181818;stroke-width:1.0;"/><polygon fill="#181818" points="961.99,894.89,956.2843,886.8622,957.6878,892.3422,952.2078,893.7457,961.99,894.89" style="stroke:#181818;stroke-width:1.0;"/><polygon fill="#000000" points="920.802,858.4012,914.5174,851.2629,911.5219,856.3201,920.802,858.4012" style="stroke:#000000;stroke-width:1.0;"/><text fill="#000000" font-family="sans-serif" font-size="13" lengthAdjust="spacing" textLength="27" x="925.5" y="860.897">uses</text></g><!--link SOL25Block to Environment--><g id="link_SOL25Block_Environment"><path codeLine="95" d="M331.59,554.81 C360.87,657.61 403.87,798.35 424.5,816 C499.6,880.27 793.567,901.1705 922.317,907.3905 " fill="none" id="SOL25Block-to-Environment" style="stroke:#181818;stroke-width:1.0;"/><polygon fill="#181818" points="928.31,907.68,919.5135,903.2504,923.3158,907.4387,919.1275,911.2411,928.31,907.68" style="stroke:#181818;stroke-width:1.0;"/><polygon fill="#000000" points="433.7934,741.9156,427.5328,734.7563,424.5203,739.8035,433.7934,741.9156" style="stroke:#000000;stroke-width:1.0;"/><text fill="#000000" font-family="sans-serif" font-size="13" lengthAdjust="spacing" textLength="27" x="438.5" y="744.397">uses</text></g><!--link SOL25ExpressionFactory to Environment--><g id="link_SOL25ExpressionFactory_Environment"><path codeLine="96" d="M1362.12,816.08 C1320.69,834.08 1275.51,851.84 1232.5,865 C1170.47,883.97 1102.9651,895.35 1052.7651,902.19 " fill="none" id="SOL25ExpressionFactory-to-Environment" style="stroke:#181818;stroke-width:1.0;"/><polygon fill="#181818" points="1046.82,903,1056.2776,905.7483,1051.7742,902.325,1055.1976,897.8216,1046.82,903" style="stroke:#181818;stroke-width:1.0;"/><polygon fill="#000000" points="1280.6831,857.1938,1290.185,857.5996,1288.6088,851.937,1280.6831,857.1938" style="stroke:#000000;stroke-width:1.0;"/><text fill="#000000" font-family="sans-serif" font-size="13" lengthAdjust="spacing" textLength="27" x="1294.5" y="860.897">uses</text></g><!--link SOL25ExpressionFactory to SOL25Object--><g id="link_SOL25ExpressionFactory_SOL25Object"><path codeLine="97" d="M1480.03,816.05 C1465,845.75 1451.9383,871.576 1442.8683,889.506 " fill="none" id="SOL25ExpressionFactory-to-SOL25Object" style="stroke:#181818;stroke-width:1.0;stroke-dasharray:7.0,7.0;"/><polygon fill="#181818" points="1440.16,894.86,1447.7918,888.6346,1442.4169,890.3984,1440.6532,885.0235,1440.16,894.86" style="stroke:#181818;stroke-width:1.0;"/><polygon fill="#000000" points="1465.2429,860.3146,1471.9485,853.5702,1466.7036,850.9168,1465.2429,860.3146" style="stroke:#000000;stroke-width:1.0;"/><text fill="#000000" font-family="sans-serif" font-size="13" lengthAdjust="spacing" textLength="43" x="1476.5" y="860.897">creates</text></g><!--link SOL25ExpressionFactory to SOL25BlockObject--><g id="link_SOL25ExpressionFactory_SOL25BlockObject"><path codeLine="98" d="M1556.52,816.05 C1571.38,845.75 1584.2879,871.5628 1593.2479,889.4928 " fill="none" id="SOL25ExpressionFactory-to-SOL25BlockObject" style="stroke:#181818;stroke-width:1.0;stroke-dasharray:7.0,7.0;"/><polygon fill="#181818" points="1595.93,894.86,1595.485,885.0212,1593.6949,890.3874,1588.3288,888.5973,1595.93,894.86" style="stroke:#181818;stroke-width:1.0;"/><polygon fill="#000000" points="1587.7364,860.325,1586.3193,850.9206,1581.0622,853.5496,1587.7364,860.325" style="stroke:#000000;stroke-width:1.0;"/><text fill="#000000" font-family="sans-serif" font-size="13" lengthAdjust="spacing" textLength="43" x="1594.5" y="860.897">creates</text></g><!--SRC=[hLRTJzim47_FNt7g2-twCPYqFLHLf8w1XCG0KMclo4sErYEnAzifwwRzxxETn76S5Zf4drBVtUz-zscVW7oYR4C4oI7dZ2ThmNC49GgCJZoPN9EKFrEsWaUIoRQCyHGbRk3BQUjO4FPaZizEpVcQfWWvvaiKCcgKaen8ELTAq6MXy2hXR45_8nYB31yLA0w2hjOAKYemKPIpo29Xlb4xXnTP65ZSNd_w_1tLcgVm9mBz6uF4JDjnCGMfdR1LTRpCUF8qBIs-ck_gFCL7ohJQkG6ivFQxaXD1rMuAb2bxC8I71yrPGnU9weU-HbqteyCU1XNY2jMY0keFMhIjpC8OGS3T2kU6dX4s1FNfDz-bCot3-jjAtbnAkc8vCbKbS0XSf2XymAtE0LbcU4Do3EZXhur03S7PZUw9FHbgm4PxSKO1nC01OwBxeuziImMt1ATmqVo1GH38XOEv92QJEzSGioB6BSaAel2QAXGawvi6hhDok_ofKm-pZqNSDVXHKROMckj1DiU0BP2bxm9qZmdIBOft0RCDvIVc241h4w8EVTItK6iNr7QhAo8BUsyCUfzef9kk8BSBGOyQ4OBiPjwIgCC_IAkIPvoafOMUdZrTpLeTt2NoKk3Db1gBVGD_v_3sIHslW_4DGKz_UllCoiFEbgfpNuezaxVfNx6Iy6jsxVBU2Ruozq5Tu9JdHnR7Wc2xlBPPwkhcX39xSCaBbavXoNcsfuZQun5rCgrmNdfqhQ1xdAQwoI-O4hixhfTRtokhqzx7C4Y2kH9HZvvRlgoxOplx-70dDghXUhGJwxm4bvgTfP98EwsENvrQugwBjc9pZSJ-VUik1Uj1eiEJSvOsDlk7p26CFBv7tm_6Q5LqcLOB9muMK6lwAev11ODaTAzVdV4J68_7S8yPCIyNkQORQKuY_w7oGMjuDPd2caZTe-aEuiZRV4QjTpgPVEYrdZdJyZs1ijQk1odKBr4wwgNJKBbfn2CDl7U3Rz4AbDU1rbHwPxrADzK9WvaVhb7swrTg5tgGO0RjI5zMZK9-ut4Sg5lL6FpuNb7glYx-ss0oYLiTDuL4e5uYHzdu5sxBy1y0]--></g></svg>