<?xml version="1.0" encoding="us-ascii" standalone="no"?><svg xmlns="http://www.w3.org/2000/svg" xmlns:xlink="http://www.w3.org/1999/xlink" contentStyleType="text/css" height="1519px" preserveAspectRatio="none" style="width:2787px;height:1519px;background:#FFFFFF;" version="1.1" viewBox="0 0 2787 1519" width="2787px" zoomAndPan="magnify"><defs/><g><!--class SOL25True--><g id="elem_SOL25True"><rect codeLine="11" fill="#F1F1F1" height="116.2717" id="SOL25True" rx="2.5" ry="2.5" style="stroke:#181818;stroke-width:0.5;" width="650" x="2130" y="7"/><ellipse cx="2414.25" cy="23" fill="#ADD1B2" rx="11" ry="11" style="stroke:#181818;stroke-width:1.0;"/><path d="M2417.2188,28.6406 Q2416.6406,28.9375 2416,29.0781 Q2415.3594,29.2344 2414.6563,29.2344 Q2412.1563,29.2344 2410.8281,27.5938 Q2409.5156,25.9375 2409.5156,22.8125 Q2409.5156,19.6875 2410.8281,18.0313 Q2412.1563,16.375 2414.6563,16.375 Q2415.3594,16.375 2416,16.5313 Q2416.6563,16.6875 2417.2188,16.9844 L2417.2188,19.7031 Q2416.5938,19.125 2416,18.8594 Q2415.4063,18.5781 2414.7813,18.5781 Q2413.4375,18.5781 2412.75,19.6563 Q2412.0625,20.7188 2412.0625,22.8125 Q2412.0625,24.9063 2412.75,25.9844 Q2413.4375,27.0469 2414.7813,27.0469 Q2415.4063,27.0469 2416,26.7813 Q2416.5938,26.5 2417.2188,25.9219 L2417.2188,28.6406 Z " fill="#000000"/><text fill="#000000" font-family="sans-serif" font-size="14" lengthAdjust="spacing" textLength="73" x="2434.75" y="28.432">SOL25True</text><line style="stroke:#181818;stroke-width:0.5;" x1="2131" x2="2779" y1="39" y2="39"/><text fill="#000000" font-family="sans-serif" font-size="14" lengthAdjust="spacing" textLength="91" x="2136" y="57.9659">+__construct()</text><text fill="#000000" font-family="sans-serif" font-size="14" lengthAdjust="spacing" textLength="425" x="2136" y="77.0339">+handleAnd(argumentBlock: SOL25BlockObject): SOL25Boolean</text><text fill="#000000" font-family="sans-serif" font-size="14" lengthAdjust="spacing" textLength="415" x="2136" y="96.1018">+handleOr(argumentBlock: SOL25BlockObject): SOL25Boolean</text><text fill="#000000" font-family="sans-serif" font-size="14" lengthAdjust="spacing" textLength="638" x="2136" y="115.1697">+handleIfTrueIfFalse(trueBlock: SOL25BlockObject, falseBlock: SOL25BlockObject): SOL25Object</text></g><!--class SOL25BlockObject--><g id="elem_SOL25BlockObject"><rect codeLine="18" fill="#F1F1F1" height="238.6792" id="SOL25BlockObject" rx="2.5" ry="2.5" style="stroke:#181818;stroke-width:0.5;" width="632" x="7" y="1105.5"/><ellipse cx="258.25" cy="1121.5" fill="#ADD1B2" rx="11" ry="11" style="stroke:#181818;stroke-width:1.0;"/><path d="M261.2188,1127.1406 Q260.6406,1127.4375 260,1127.5781 Q259.3594,1127.7344 258.6563,1127.7344 Q256.1563,1127.7344 254.8281,1126.0938 Q253.5156,1124.4375 253.5156,1121.3125 Q253.5156,1118.1875 254.8281,1116.5313 Q256.1563,1114.875 258.6563,1114.875 Q259.3594,1114.875 260,1115.0313 Q260.6563,1115.1875 261.2188,1115.4844 L261.2188,1118.2031 Q260.5938,1117.625 260,1117.3594 Q259.4063,1117.0781 258.7813,1117.0781 Q257.4375,1117.0781 256.75,1118.1563 Q256.0625,1119.2188 256.0625,1121.3125 Q256.0625,1123.4063 256.75,1124.4844 Q257.4375,1125.5469 258.7813,1125.5469 Q259.4063,1125.5469 260,1125.2813 Q260.5938,1125 261.2188,1124.4219 L261.2188,1127.1406 Z " fill="#000000"/><text fill="#000000" font-family="sans-serif" font-size="14" lengthAdjust="spacing" textLength="121" x="278.75" y="1126.932">SOL25BlockObject</text><line style="stroke:#181818;stroke-width:0.5;" x1="8" x2="638" y1="1137.5" y2="1137.5"/><text fill="#000000" font-family="sans-serif" font-size="14" lengthAdjust="spacing" textLength="167" x="13" y="1156.4659">-blockModel: SOL25Block</text><text fill="#000000" font-family="sans-serif" font-size="14" lengthAdjust="spacing" textLength="185" x="13" y="1175.5339">-capturedSelf: SOL25Object</text><text fill="#000000" font-family="sans-serif" font-size="14" lengthAdjust="spacing" textLength="191" x="13" y="1194.6018">-attributes: AttributeStorage</text><line style="stroke:#181818;stroke-width:0.5;" x1="8" x2="638" y1="1202.7038" y2="1202.7038"/><text fill="#000000" font-family="sans-serif" font-size="14" lengthAdjust="spacing" textLength="445" x="13" y="1221.6697">+__construct(blockModel: SOL25Block , capturedSelf: SOL25Object)</text><text fill="#000000" font-family="sans-serif" font-size="14" lengthAdjust="spacing" textLength="278" x="13" y="1240.7376">+getAttribute(name: string): SOL25Object</text><text fill="#000000" font-family="sans-serif" font-size="14" lengthAdjust="spacing" textLength="320" x="13" y="1259.8055">+setAttribute(name: string, value: SOL25Object)</text><text fill="#000000" font-family="sans-serif" font-size="14" lengthAdjust="spacing" textLength="287" x="13" y="1278.8734">+copyAttributesFrom(source: SOL25Object)</text><text fill="#000000" font-family="sans-serif" font-size="14" lengthAdjust="spacing" textLength="191" x="13" y="1297.9414">+handleIsBlock(): SOL25True</text><text fill="#000000" font-family="sans-serif" font-size="14" lengthAdjust="spacing" textLength="378" x="13" y="1317.0093">+handleValue(environment: Environment ): SOL25Object</text><text fill="#000000" font-family="sans-serif" font-size="14" lengthAdjust="spacing" textLength="620" x="13" y="1336.0772">+handleWhileTrue(environment: Environment , conditionBlock: SOL25BlockObject): SOL25Nil</text></g><!--class SOL25String--><g id="elem_SOL25String"><rect codeLine="31" fill="#F1F1F1" height="238.6792" id="SOL25String" rx="2.5" ry="2.5" style="stroke:#181818;stroke-width:0.5;" width="592" x="1369" y="416.5"/><ellipse cx="1619.25" cy="432.5" fill="#ADD1B2" rx="11" ry="11" style="stroke:#181818;stroke-width:1.0;"/><path d="M1622.2188,438.1406 Q1621.6406,438.4375 1621,438.5781 Q1620.3594,438.7344 1619.6563,438.7344 Q1617.1563,438.7344 1615.8281,437.0938 Q1614.5156,435.4375 1614.5156,432.3125 Q1614.5156,429.1875 1615.8281,427.5313 Q1617.1563,425.875 1619.6563,425.875 Q1620.3594,425.875 1621,426.0313 Q1621.6563,426.1875 1622.2188,426.4844 L1622.2188,429.2031 Q1621.5938,428.625 1621,428.3594 Q1620.4063,428.0781 1619.7813,428.0781 Q1618.4375,428.0781 1617.75,429.1563 Q1617.0625,430.2188 1617.0625,432.3125 Q1617.0625,434.4063 1617.75,435.4844 Q1618.4375,436.5469 1619.7813,436.5469 Q1620.4063,436.5469 1621,436.2813 Q1621.5938,436 1622.2188,435.4219 L1622.2188,438.1406 Z " fill="#000000"/><text fill="#000000" font-family="sans-serif" font-size="14" lengthAdjust="spacing" textLength="83" x="1639.75" y="437.932">SOL25String</text><line style="stroke:#181818;stroke-width:0.5;" x1="1370" x2="1960" y1="448.5" y2="448.5"/><text fill="#000000" font-family="sans-serif" font-size="14" lengthAdjust="spacing" textLength="89" x="1375" y="467.4659">-value: string</text><line style="stroke:#181818;stroke-width:0.5;" x1="1370" x2="1960" y1="475.5679" y2="475.5679"/><text fill="#000000" font-family="sans-serif" font-size="14" lengthAdjust="spacing" textLength="175" x="1375" y="494.5339">+__construct(value: string)</text><text fill="#000000" font-family="sans-serif" font-size="14" lengthAdjust="spacing" textLength="123" x="1375" y="513.6018">+getValue(): string</text><text fill="#000000" font-family="sans-serif" font-size="14" lengthAdjust="spacing" textLength="211" x="1375" y="532.6697">+handleAsString(): SOL25String</text><text fill="#000000" font-family="sans-serif" font-size="14" lengthAdjust="spacing" textLength="197" x="1375" y="551.7376">+handleIsString(): SOL25True</text><text fill="#000000" font-family="sans-serif" font-size="14" lengthAdjust="spacing" textLength="351" x="1375" y="570.8055">+handleEqualTo(other: SOL25Object): SOL25Boolean</text><text fill="#000000" font-family="sans-serif" font-size="14" lengthAdjust="spacing" textLength="348" x="1375" y="589.8734">+handlePrint(environment: Environment ): SOL25Nil</text><text fill="#000000" font-family="sans-serif" font-size="14" lengthAdjust="spacing" textLength="396" x="1375" y="608.9414">+handleConcatenateWith(other: SOL25String): SOL25String</text><text fill="#000000" font-family="sans-serif" font-size="14" lengthAdjust="spacing" textLength="229" x="1375" y="628.0093">+handleAsInteger(): SOL25Integer</text><text fill="#000000" font-family="sans-serif" font-size="14" lengthAdjust="spacing" textLength="580" x="1375" y="647.0772">+handleStartsWithEndsBefore(prefix: SOL25String, suffix: SOL25String): SOL25Boolean</text></g><!--class SOL25Integer--><g id="elem_SOL25Integer"><rect codeLine="44" fill="#F1F1F1" height="353.0867" id="SOL25Integer" rx="2.5" ry="2.5" style="stroke:#181818;stroke-width:0.5;" width="587" x="1371.5" y="690.5"/><ellipse cx="1614.75" cy="706.5" fill="#ADD1B2" rx="11" ry="11" style="stroke:#181818;stroke-width:1.0;"/><path d="M1617.7188,712.1406 Q1617.1406,712.4375 1616.5,712.5781 Q1615.8594,712.7344 1615.1563,712.7344 Q1612.6563,712.7344 1611.3281,711.0938 Q1610.0156,709.4375 1610.0156,706.3125 Q1610.0156,703.1875 1611.3281,701.5313 Q1612.6563,699.875 1615.1563,699.875 Q1615.8594,699.875 1616.5,700.0313 Q1617.1563,700.1875 1617.7188,700.4844 L1617.7188,703.2031 Q1617.0938,702.625 1616.5,702.3594 Q1615.9063,702.0781 1615.2813,702.0781 Q1613.9375,702.0781 1613.25,703.1563 Q1612.5625,704.2188 1612.5625,706.3125 Q1612.5625,708.4063 1613.25,709.4844 Q1613.9375,710.5469 1615.2813,710.5469 Q1615.9063,710.5469 1616.5,710.2813 Q1617.0938,710 1617.7188,709.4219 L1617.7188,712.1406 Z " fill="#000000"/><text fill="#000000" font-family="sans-serif" font-size="14" lengthAdjust="spacing" textLength="92" x="1635.25" y="711.932">SOL25Integer</text><line style="stroke:#181818;stroke-width:0.5;" x1="1372.5" x2="1957.5" y1="722.5" y2="722.5"/><text fill="#000000" font-family="sans-serif" font-size="14" lengthAdjust="spacing" textLength="67" x="1377.5" y="741.4659">-value: int</text><line style="stroke:#181818;stroke-width:0.5;" x1="1372.5" x2="1957.5" y1="749.5679" y2="749.5679"/><text fill="#000000" font-family="sans-serif" font-size="14" lengthAdjust="spacing" textLength="153" x="1377.5" y="768.5339">+__construct(value: int)</text><text fill="#000000" font-family="sans-serif" font-size="14" lengthAdjust="spacing" textLength="101" x="1377.5" y="787.6018">+getValue(): int</text><text fill="#000000" font-family="sans-serif" font-size="14" lengthAdjust="spacing" textLength="135" x="1377.5" y="806.6697">+setValue(value: int)</text><text fill="#000000" font-family="sans-serif" font-size="14" lengthAdjust="spacing" textLength="212" x="1377.5" y="825.7376">+handleIsNumber(): SOL25True</text><text fill="#000000" font-family="sans-serif" font-size="14" lengthAdjust="spacing" textLength="211" x="1377.5" y="844.8055">+handleAsString(): SOL25String</text><text fill="#000000" font-family="sans-serif" font-size="14" lengthAdjust="spacing" textLength="229" x="1377.5" y="863.8734">+handleAsInteger(): SOL25Integer</text><text fill="#000000" font-family="sans-serif" font-size="14" lengthAdjust="spacing" textLength="351" x="1377.5" y="882.9414">+handleEqualTo(other: SOL25Object): SOL25Boolean</text><text fill="#000000" font-family="sans-serif" font-size="14" lengthAdjust="spacing" textLength="388" x="1377.5" y="902.0093">+handleGreaterThan(other: SOL25Integer): SOL25Boolean</text><text fill="#000000" font-family="sans-serif" font-size="14" lengthAdjust="spacing" textLength="327" x="1377.5" y="921.0772">+handlePlus(other: SOL25Integer): SOL25Integer</text><text fill="#000000" font-family="sans-serif" font-size="14" lengthAdjust="spacing" textLength="341" x="1377.5" y="940.1451">+handleMinus(other: SOL25Integer): SOL25Integer</text><text fill="#000000" font-family="sans-serif" font-size="14" lengthAdjust="spacing" textLength="370" x="1377.5" y="959.213">+handleMultiplyBy(other: SOL25Integer): SOL25Integer</text><text fill="#000000" font-family="sans-serif" font-size="14" lengthAdjust="spacing" textLength="336" x="1377.5" y="978.2809">+handleDivBy(other: SOL25Integer): SOL25Integer</text><text fill="#000000" font-family="sans-serif" font-size="14" lengthAdjust="spacing" textLength="575" x="1377.5" y="997.3489">+handleTimesRepeat(block: SOL25BlockObject, environment: Environment ): SOL25Nil</text><text fill="#000000" font-family="sans-serif" font-size="14" lengthAdjust="spacing" textLength="343" x="1377.5" y="1016.4168">+handleValueArity0(environment: Environment ): ...</text><text fill="#000000" font-family="sans-serif" font-size="14" lengthAdjust="spacing" textLength="512" x="1377.5" y="1035.4847">+handleValueArity1(argument: SOL25Object, environment: Environment ): ...</text></g><!--class SOL25False--><g id="elem_SOL25False"><rect codeLine="63" fill="#F1F1F1" height="116.2717" id="SOL25False" rx="2.5" ry="2.5" style="stroke:#181818;stroke-width:0.5;" width="650" x="2130" y="158"/><ellipse cx="2412.75" cy="174" fill="#ADD1B2" rx="11" ry="11" style="stroke:#181818;stroke-width:1.0;"/><path d="M2415.7188,179.6406 Q2415.1406,179.9375 2414.5,180.0781 Q2413.8594,180.2344 2413.1563,180.2344 Q2410.6563,180.2344 2409.3281,178.5938 Q2408.0156,176.9375 2408.0156,173.8125 Q2408.0156,170.6875 2409.3281,169.0313 Q2410.6563,167.375 2413.1563,167.375 Q2413.8594,167.375 2414.5,167.5313 Q2415.1563,167.6875 2415.7188,167.9844 L2415.7188,170.7031 Q2415.0938,170.125 2414.5,169.8594 Q2413.9063,169.5781 2413.2813,169.5781 Q2411.9375,169.5781 2411.25,170.6563 Q2410.5625,171.7188 2410.5625,173.8125 Q2410.5625,175.9063 2411.25,176.9844 Q2411.9375,178.0469 2413.2813,178.0469 Q2413.9063,178.0469 2414.5,177.7813 Q2415.0938,177.5 2415.7188,176.9219 L2415.7188,179.6406 Z " fill="#000000"/><text fill="#000000" font-family="sans-serif" font-size="14" lengthAdjust="spacing" textLength="76" x="2433.25" y="179.432">SOL25False</text><line style="stroke:#181818;stroke-width:0.5;" x1="2131" x2="2779" y1="190" y2="190"/><text fill="#000000" font-family="sans-serif" font-size="14" lengthAdjust="spacing" textLength="91" x="2136" y="208.9659">+__construct()</text><text fill="#000000" font-family="sans-serif" font-size="14" lengthAdjust="spacing" textLength="425" x="2136" y="228.0339">+handleAnd(argumentBlock: SOL25BlockObject): SOL25Boolean</text><text fill="#000000" font-family="sans-serif" font-size="14" lengthAdjust="spacing" textLength="415" x="2136" y="247.1018">+handleOr(argumentBlock: SOL25BlockObject): SOL25Boolean</text><text fill="#000000" font-family="sans-serif" font-size="14" lengthAdjust="spacing" textLength="638" x="2136" y="266.1697">+handleIfTrueIfFalse(trueBlock: SOL25BlockObject, falseBlock: SOL25BlockObject): SOL25Object</text></g><!--class SOL25Boolean--><g id="elem_SOL25Boolean"><rect codeLine="70" fill="#F1F1F1" height="219.6113" id="SOL25Boolean" rx="2.5" ry="2.5" style="stroke:#181818;stroke-width:0.5;" width="650" x="1340" y="90"/><ellipse cx="1612.75" cy="106" fill="#ADD1B2" rx="11" ry="11" style="stroke:#181818;stroke-width:1.0;"/><path d="M1615.7188,111.6406 Q1615.1406,111.9375 1614.5,112.0781 Q1613.8594,112.2344 1613.1563,112.2344 Q1610.6563,112.2344 1609.3281,110.5938 Q1608.0156,108.9375 1608.0156,105.8125 Q1608.0156,102.6875 1609.3281,101.0313 Q1610.6563,99.375 1613.1563,99.375 Q1613.8594,99.375 1614.5,99.5313 Q1615.1563,99.6875 1615.7188,99.9844 L1615.7188,102.7031 Q1615.0938,102.125 1614.5,101.8594 Q1613.9063,101.5781 1613.2813,101.5781 Q1611.9375,101.5781 1611.25,102.6563 Q1610.5625,103.7188 1610.5625,105.8125 Q1610.5625,107.9063 1611.25,108.9844 Q1611.9375,110.0469 1613.2813,110.0469 Q1613.9063,110.0469 1614.5,109.7813 Q1615.0938,109.5 1615.7188,108.9219 L1615.7188,111.6406 Z " fill="#000000"/><text fill="#000000" font-family="sans-serif" font-size="14" lengthAdjust="spacing" textLength="96" x="1633.25" y="111.432">SOL25Boolean</text><line style="stroke:#181818;stroke-width:0.5;" x1="1341" x2="1989" y1="122" y2="122"/><text fill="#000000" font-family="sans-serif" font-size="14" lengthAdjust="spacing" textLength="82" x="1346" y="140.9659">#value: bool</text><line style="stroke:#181818;stroke-width:0.5;" x1="1341" x2="1989" y1="149.0679" y2="149.0679"/><text fill="#000000" font-family="sans-serif" font-size="14" lengthAdjust="spacing" textLength="627" x="1346" y="168.0339">#evaluateBlockArgument(block: SOL25BlockObject, environment: Environment ): SOL25Object</text><text fill="#000000" font-family="sans-serif" font-size="14" lengthAdjust="spacing" textLength="164" x="1346" y="187.1018">+__construct(value: bool)</text><text fill="#000000" font-family="sans-serif" font-size="14" lengthAdjust="spacing" textLength="112" x="1346" y="206.1697">+getValue(): bool</text><text fill="#000000" font-family="sans-serif" font-size="14" lengthAdjust="spacing" textLength="191" x="1346" y="225.2376">+handleNot(): SOL25Boolean</text><text fill="#000000" font-family="sans-serif" font-size="14" lengthAdjust="spacing" textLength="425" x="1346" y="244.3055">+handleAnd(argumentBlock: SOL25BlockObject): SOL25Boolean</text><text fill="#000000" font-family="sans-serif" font-size="14" lengthAdjust="spacing" textLength="415" x="1346" y="263.3734">+handleOr(argumentBlock: SOL25BlockObject): SOL25Boolean</text><text fill="#000000" font-family="sans-serif" font-size="14" lengthAdjust="spacing" textLength="638" x="1346" y="282.4414">+handleIfTrueIfFalse(trueBlock: SOL25BlockObject, falseBlock: SOL25BlockObject): SOL25Object</text><text fill="#000000" font-family="sans-serif" font-size="14" lengthAdjust="spacing" textLength="211" x="1346" y="301.5093">+handleAsString(): SOL25String</text></g><!--class SOL25Instance--><g id="elem_SOL25Instance"><rect codeLine="82" fill="#F1F1F1" height="181.4754" id="SOL25Instance" rx="2.5" ry="2.5" style="stroke:#181818;stroke-width:0.5;" width="359" x="1485.5" y="1248.5"/><ellipse cx="1610.75" cy="1264.5" fill="#ADD1B2" rx="11" ry="11" style="stroke:#181818;stroke-width:1.0;"/><path d="M1613.7188,1270.1406 Q1613.1406,1270.4375 1612.5,1270.5781 Q1611.8594,1270.7344 1611.1563,1270.7344 Q1608.6563,1270.7344 1607.3281,1269.0938 Q1606.0156,1267.4375 1606.0156,1264.3125 Q1606.0156,1261.1875 1607.3281,1259.5313 Q1608.6563,1257.875 1611.1563,1257.875 Q1611.8594,1257.875 1612.5,1258.0313 Q1613.1563,1258.1875 1613.7188,1258.4844 L1613.7188,1261.2031 Q1613.0938,1260.625 1612.5,1260.3594 Q1611.9063,1260.0781 1611.2813,1260.0781 Q1609.9375,1260.0781 1609.25,1261.1563 Q1608.5625,1262.2188 1608.5625,1264.3125 Q1608.5625,1266.4063 1609.25,1267.4844 Q1609.9375,1268.5469 1611.2813,1268.5469 Q1611.9063,1268.5469 1612.5,1268.2813 Q1613.0938,1268 1613.7188,1267.4219 L1613.7188,1270.1406 Z " fill="#000000"/><text fill="#000000" font-family="sans-serif" font-size="14" lengthAdjust="spacing" textLength="100" x="1631.25" y="1269.932">SOL25Instance</text><line style="stroke:#181818;stroke-width:0.5;" x1="1486.5" x2="1843.5" y1="1280.5" y2="1280.5"/><text fill="#000000" font-family="sans-serif" font-size="14" lengthAdjust="spacing" textLength="165" x="1491.5" y="1299.4659">-classModel: SOL25Class</text><text fill="#000000" font-family="sans-serif" font-size="14" lengthAdjust="spacing" textLength="204" x="1491.5" y="1318.5339">-builtInDelegate: SOL25Object</text><line style="stroke:#181818;stroke-width:0.5;" x1="1486.5" x2="1843.5" y1="1326.6358" y2="1326.6358"/><text fill="#000000" font-family="sans-serif" font-size="14" lengthAdjust="spacing" textLength="174" x="1491.5" y="1345.6018">-initializeBuiltinDelegate()</text><text fill="#000000" font-family="sans-serif" font-size="14" lengthAdjust="spacing" textLength="255" x="1491.5" y="1364.6697">+__construct(classModel: SOL25Class )</text><text fill="#000000" font-family="sans-serif" font-size="14" lengthAdjust="spacing" textLength="161" x="1491.5" y="1383.7376">+getClassName(): string</text><text fill="#000000" font-family="sans-serif" font-size="14" lengthAdjust="spacing" textLength="237" x="1491.5" y="1402.8055">+getBuiltInDelegate(): SOL25Object</text><text fill="#000000" font-family="sans-serif" font-size="14" lengthAdjust="spacing" textLength="347" x="1491.5" y="1421.8734">+setBuiltinDelegateInternal(delegate: SOL25Object)</text></g><!--class SOL25Nil--><g id="elem_SOL25Nil"><rect codeLine="92" fill="#F1F1F1" height="135.3396" id="SOL25Nil" rx="2.5" ry="2.5" style="stroke:#181818;stroke-width:0.5;" width="363" x="1483.5" y="1078.5"/><ellipse cx="1630.25" cy="1094.5" fill="#ADD1B2" rx="11" ry="11" style="stroke:#181818;stroke-width:1.0;"/><path d="M1633.2188,1100.1406 Q1632.6406,1100.4375 1632,1100.5781 Q1631.3594,1100.7344 1630.6563,1100.7344 Q1628.1563,1100.7344 1626.8281,1099.0938 Q1625.5156,1097.4375 1625.5156,1094.3125 Q1625.5156,1091.1875 1626.8281,1089.5313 Q1628.1563,1087.875 1630.6563,1087.875 Q1631.3594,1087.875 1632,1088.0313 Q1632.6563,1088.1875 1633.2188,1088.4844 L1633.2188,1091.2031 Q1632.5938,1090.625 1632,1090.3594 Q1631.4063,1090.0781 1630.7813,1090.0781 Q1629.4375,1090.0781 1628.75,1091.1563 Q1628.0625,1092.2188 1628.0625,1094.3125 Q1628.0625,1096.4063 1628.75,1097.4844 Q1629.4375,1098.5469 1630.7813,1098.5469 Q1631.4063,1098.5469 1632,1098.2813 Q1632.5938,1098 1633.2188,1097.4219 L1633.2188,1100.1406 Z " fill="#000000"/><text fill="#000000" font-family="sans-serif" font-size="14" lengthAdjust="spacing" textLength="61" x="1650.75" y="1099.932">SOL25Nil</text><line style="stroke:#181818;stroke-width:0.5;" x1="1484.5" x2="1845.5" y1="1110.5" y2="1110.5"/><text fill="#000000" font-family="sans-serif" font-size="14" lengthAdjust="spacing" textLength="91" x="1489.5" y="1129.4659">+__construct()</text><text fill="#000000" font-family="sans-serif" font-size="14" lengthAdjust="spacing" textLength="211" x="1489.5" y="1148.5339">+handleAsString(): SOL25String</text><text fill="#000000" font-family="sans-serif" font-size="14" lengthAdjust="spacing" textLength="175" x="1489.5" y="1167.6018">+handleIsNil(): SOL25True</text><text fill="#000000" font-family="sans-serif" font-size="14" lengthAdjust="spacing" textLength="348" x="1489.5" y="1186.6697">+handlePrint(environment: Environment ): SOL25Nil</text><text fill="#000000" font-family="sans-serif" font-size="14" lengthAdjust="spacing" textLength="351" x="1489.5" y="1205.7376">+handleEqualTo(other: SOL25Object): SOL25Boolean</text></g><!--class SOL25Object--><g id="elem_SOL25Object"><rect codeLine="100" fill="#F1F1F1" height="200.5433" id="SOL25Object" rx="2.5" ry="2.5" style="stroke:#181818;stroke-width:0.5;" width="384" x="807" y="1066.5"/><ellipse cx="951.75" cy="1082.5" fill="#ADD1B2" rx="11" ry="11" style="stroke:#181818;stroke-width:1.0;"/><path d="M954.7188,1088.1406 Q954.1406,1088.4375 953.5,1088.5781 Q952.8594,1088.7344 952.1563,1088.7344 Q949.6563,1088.7344 948.3281,1087.0938 Q947.0156,1085.4375 947.0156,1082.3125 Q947.0156,1079.1875 948.3281,1077.5313 Q949.6563,1075.875 952.1563,1075.875 Q952.8594,1075.875 953.5,1076.0313 Q954.1563,1076.1875 954.7188,1076.4844 L954.7188,1079.2031 Q954.0938,1078.625 953.5,1078.3594 Q952.9063,1078.0781 952.2813,1078.0781 Q950.9375,1078.0781 950.25,1079.1563 Q949.5625,1080.2188 949.5625,1082.3125 Q949.5625,1084.4063 950.25,1085.4844 Q950.9375,1086.5469 952.2813,1086.5469 Q952.9063,1086.5469 953.5,1086.2813 Q954.0938,1086 954.7188,1085.4219 L954.7188,1088.1406 Z " fill="#000000"/><text fill="#000000" font-family="sans-serif" font-size="14" lengthAdjust="spacing" textLength="86" x="972.25" y="1087.932">SOL25Object</text><line style="stroke:#181818;stroke-width:0.5;" x1="808" x2="1190" y1="1098.5" y2="1098.5"/><text fill="#000000" font-family="sans-serif" font-size="14" lengthAdjust="spacing" textLength="240" x="813" y="1117.4659">#attributeStorage: AttributeStorage</text><line style="stroke:#181818;stroke-width:0.5;" x1="808" x2="1190" y1="1125.5679" y2="1125.5679"/><text fill="#000000" font-family="sans-serif" font-size="14" lengthAdjust="spacing" textLength="161" x="813" y="1144.5339">+getClassName(): string</text><text fill="#000000" font-family="sans-serif" font-size="14" lengthAdjust="spacing" textLength="372" x="813" y="1163.6018">+handleIdenticalTo(other: SOL25Object): SOL25Boolean</text><text fill="#000000" font-family="sans-serif" font-size="14" lengthAdjust="spacing" textLength="351" x="813" y="1182.6697">+handleEqualTo(other: SOL25Object): SOL25Boolean</text><text fill="#000000" font-family="sans-serif" font-size="14" lengthAdjust="spacing" textLength="211" x="813" y="1201.7376">+handleAsString(): SOL25String</text><text fill="#000000" font-family="sans-serif" font-size="14" lengthAdjust="spacing" textLength="278" x="813" y="1220.8055">+getAttribute(name: string): SOL25Object</text><text fill="#000000" font-family="sans-serif" font-size="14" lengthAdjust="spacing" textLength="320" x="813" y="1239.8734">+setAttribute(name: string, value: SOL25Object)</text><text fill="#000000" font-family="sans-serif" font-size="14" lengthAdjust="spacing" textLength="287" x="813" y="1258.9414">+copyAttributesFrom(source: SOL25Object)</text></g><!--class AttributeStorage--><g id="elem_AttributeStorage"><rect fill="#F1F1F1" height="32" id="AttributeStorage" rx="2.5" ry="2.5" style="stroke:#181818;stroke-width:0.5;" width="144" x="1593" y="1465"/><ellipse cx="1608" cy="1481" fill="#ADD1B2" rx="11" ry="11" style="stroke:#181818;stroke-width:1.0;"/><path d="M1610.9688,1486.6406 Q1610.3906,1486.9375 1609.75,1487.0781 Q1609.1094,1487.2344 1608.4063,1487.2344 Q1605.9063,1487.2344 1604.5781,1485.5938 Q1603.2656,1483.9375 1603.2656,1480.8125 Q1603.2656,1477.6875 1604.5781,1476.0313 Q1605.9063,1474.375 1608.4063,1474.375 Q1609.1094,1474.375 1609.75,1474.5313 Q1610.4063,1474.6875 1610.9688,1474.9844 L1610.9688,1477.7031 Q1610.3438,1477.125 1609.75,1476.8594 Q1609.1563,1476.5781 1608.5313,1476.5781 Q1607.1875,1476.5781 1606.5,1477.6563 Q1605.8125,1478.7188 1605.8125,1480.8125 Q1605.8125,1482.9063 1606.5,1483.9844 Q1607.1875,1485.0469 1608.5313,1485.0469 Q1609.1563,1485.0469 1609.75,1484.7813 Q1610.3438,1484.5 1610.9688,1483.9219 L1610.9688,1486.6406 Z " fill="#000000"/><text fill="#000000" font-family="sans-serif" font-size="14" lengthAdjust="spacing" textLength="112" x="1622" y="1486.432">AttributeStorage</text></g><!--class SOL25Block--><g id="elem_SOL25Block"><rect fill="#F1F1F1" height="32" id="SOL25Block" rx="2.5" ry="2.5" style="stroke:#181818;stroke-width:0.5;" width="109" x="944.5" y="1416"/><ellipse cx="959.5" cy="1432" fill="#ADD1B2" rx="11" ry="11" style="stroke:#181818;stroke-width:1.0;"/><path d="M962.4688,1437.6406 Q961.8906,1437.9375 961.25,1438.0781 Q960.6094,1438.2344 959.9063,1438.2344 Q957.4063,1438.2344 956.0781,1436.5938 Q954.7656,1434.9375 954.7656,1431.8125 Q954.7656,1428.6875 956.0781,1427.0313 Q957.4063,1425.375 959.9063,1425.375 Q960.6094,1425.375 961.25,1425.5313 Q961.9063,1425.6875 962.4688,1425.9844 L962.4688,1428.7031 Q961.8438,1428.125 961.25,1427.8594 Q960.6563,1427.5781 960.0313,1427.5781 Q958.6875,1427.5781 958,1428.6563 Q957.3125,1429.7188 957.3125,1431.8125 Q957.3125,1433.9063 958,1434.9844 Q958.6875,1436.0469 960.0313,1436.0469 Q960.6563,1436.0469 961.25,1435.7813 Q961.8438,1435.5 962.4688,1434.9219 L962.4688,1437.6406 Z " fill="#000000"/><text fill="#000000" font-family="sans-serif" font-size="14" lengthAdjust="spacing" textLength="77" x="973.5" y="1437.432">SOL25Block</text></g><!--class SOL25Class--><g id="elem_SOL25Class"><rect fill="#F1F1F1" height="32" id="SOL25Class" rx="2.5" ry="2.5" style="stroke:#181818;stroke-width:0.5;" width="109" x="2400.5" y="1323"/><ellipse cx="2415.5" cy="1339" fill="#ADD1B2" rx="11" ry="11" style="stroke:#181818;stroke-width:1.0;"/><path d="M2418.4688,1344.6406 Q2417.8906,1344.9375 2417.25,1345.0781 Q2416.6094,1345.2344 2415.9063,1345.2344 Q2413.4063,1345.2344 2412.0781,1343.5938 Q2410.7656,1341.9375 2410.7656,1338.8125 Q2410.7656,1335.6875 2412.0781,1334.0313 Q2413.4063,1332.375 2415.9063,1332.375 Q2416.6094,1332.375 2417.25,1332.5313 Q2417.9063,1332.6875 2418.4688,1332.9844 L2418.4688,1335.7031 Q2417.8438,1335.125 2417.25,1334.8594 Q2416.6563,1334.5781 2416.0313,1334.5781 Q2414.6875,1334.5781 2414,1335.6563 Q2413.3125,1336.7188 2413.3125,1338.8125 Q2413.3125,1340.9063 2414,1341.9844 Q2414.6875,1343.0469 2416.0313,1343.0469 Q2416.6563,1343.0469 2417.25,1342.7813 Q2417.8438,1342.5 2418.4688,1341.9219 L2418.4688,1344.6406 Z " fill="#000000"/><text fill="#000000" font-family="sans-serif" font-size="14" lengthAdjust="spacing" textLength="77" x="2429.5" y="1344.432">SOL25Class</text></g><!--class Environment--><g id="elem_Environment"><rect fill="#F1F1F1" height="32" id="Environment" rx="2.5" ry="2.5" style="stroke:#181818;stroke-width:0.5;" width="118" x="2396" y="520"/><ellipse cx="2411" cy="536" fill="#ADD1B2" rx="11" ry="11" style="stroke:#181818;stroke-width:1.0;"/><path d="M2413.9688,541.6406 Q2413.3906,541.9375 2412.75,542.0781 Q2412.1094,542.2344 2411.4063,542.2344 Q2408.9063,542.2344 2407.5781,540.5938 Q2406.2656,538.9375 2406.2656,535.8125 Q2406.2656,532.6875 2407.5781,531.0313 Q2408.9063,529.375 2411.4063,529.375 Q2412.1094,529.375 2412.75,529.5313 Q2413.4063,529.6875 2413.9688,529.9844 L2413.9688,532.7031 Q2413.3438,532.125 2412.75,531.8594 Q2412.1563,531.5781 2411.5313,531.5781 Q2410.1875,531.5781 2409.5,532.6563 Q2408.8125,533.7188 2408.8125,535.8125 Q2408.8125,537.9063 2409.5,538.9844 Q2410.1875,540.0469 2411.5313,540.0469 Q2412.1563,540.0469 2412.75,539.7813 Q2413.3438,539.5 2413.9688,538.9219 L2413.9688,541.6406 Z " fill="#000000"/><text fill="#000000" font-family="sans-serif" font-size="14" lengthAdjust="spacing" textLength="86" x="2425" y="541.432">Environment</text></g><!--reverse link SOL25Object to SOL25Boolean--><g id="link_SOL25Object_SOL25Boolean"><path codeLine="114" d="M1017.1271,1048.3863 C1047.2871,850.8763 1119.98,440.92 1221,336 C1254.06,301.66 1295.55,275.93 1339.79,256.66 " fill="none" id="SOL25Object-backto-SOL25Boolean" style="stroke:#181818;stroke-width:1.0;"/><polygon fill="none" points="1014.41,1066.18,1023.0584,1049.292,1011.1959,1047.4806,1014.41,1066.18" style="stroke:#181818;stroke-width:1.0;"/></g><!--reverse link SOL25Object to SOL25BlockObject--><g id="link_SOL25Object_SOL25BlockObject"><path codeLine="115" d="M788.9637,1201.7797 C778.8937,1203.0597 786.76,1201.97 777,1203 C732.46,1207.69 685.36,1211.39 639.02,1214.29 " fill="none" id="SOL25Object-backto-SOL25BlockObject" style="stroke:#181818;stroke-width:1.0;"/><polygon fill="none" points="806.82,1199.51,788.2071,1195.8276,789.7202,1207.7318,806.82,1199.51" style="stroke:#181818;stroke-width:1.0;"/></g><!--reverse link SOL25BlockObject to SOL25Object--><g id="link_SOL25BlockObject_SOL25Object"><path codeLine="129" d="M651.2457,1196.8399 C708.4657,1191.9099 754.56,1187.95 806.82,1183.45 " fill="none" id="SOL25BlockObject-backto-SOL25Object" style="stroke:#181818;stroke-width:1.0;"/><polygon fill="none" points="639.29,1197.87,645.6112,1201.3402,651.2457,1196.8399,644.9245,1193.3697,639.29,1197.87" style="stroke:#181818;stroke-width:1.0;"/><polygon fill="#000000" points="678.0184,1179.2818,687.2822,1181.4342,686.7782,1175.578,678.0184,1179.2818" style="stroke:#000000;stroke-width:1.0;"/><text fill="#000000" font-family="sans-serif" font-size="13" lengthAdjust="spacing" textLength="75" x="692" y="1183.897">captures self</text><text fill="#000000" font-family="sans-serif" font-size="13" lengthAdjust="spacing" textLength="7" x="792.1763" y="1198.3443">1</text></g><!--reverse link SOL25Object to SOL25Instance--><g id="link_SOL25Object_SOL25Instance"><path codeLine="116" d="M1208.9457,1180.583 C1249.1657,1186.993 1272.86,1194 1310,1209 C1325.33,1215.19 1325.31,1223.4 1340,1231 C1385.43,1254.49 1437.02,1274.41 1485.47,1290.5 " fill="none" id="SOL25Object-backto-SOL25Instance" style="stroke:#181818;stroke-width:1.0;"/><polygon fill="none" points="1191.17,1177.75,1208.0013,1186.5082,1209.89,1174.6577,1191.17,1177.75" style="stroke:#181818;stroke-width:1.0;"/></g><!--reverse link SOL25Instance to SOL25Object--><g id="link_SOL25Instance_SOL25Object"><path codeLine="131" d="M1473.7022,1298.0181 C1392.6522,1279.7981 1307.48,1259.52 1221,1236 C1211.21,1233.33 1201.2,1230.52 1191.1,1227.62 " fill="none" id="SOL25Instance-backto-SOL25Object" style="stroke:#181818;stroke-width:1.0;"/><polygon fill="none" points="1485.41,1300.65,1480.4334,1295.4314,1473.7022,1298.0181,1478.6788,1303.2367,1485.41,1300.65" style="stroke:#181818;stroke-width:1.0;"/><polygon fill="#000000" points="1230.8517,1228.0616,1222.7853,1223.0235,1221.3645,1228.727,1230.8517,1228.0616" style="stroke:#000000;stroke-width:1.0;"/><text fill="#000000" font-family="sans-serif" font-size="13" lengthAdjust="spacing" textLength="74" x="1235" y="1231.897">delegates to</text><text fill="#000000" font-family="sans-serif" font-size="13" lengthAdjust="spacing" textLength="20" x="1198.9945" y="1244.2397">0..1</text></g><!--reverse link SOL25Object to SOL25Integer--><g id="link_SOL25Object_SOL25Integer"><path codeLine="117" d="M1207.5735,1073.2189 C1263.7935,1047.8189 1310.23,1026.84 1371.27,999.26 " fill="none" id="SOL25Object-backto-SOL25Integer" style="stroke:#181818;stroke-width:1.0;"/><polygon fill="none" points="1191.17,1080.63,1210.0439,1078.6868,1205.1032,1067.7511,1191.17,1080.63" style="stroke:#181818;stroke-width:1.0;"/></g><!--reverse link SOL25Object to SOL25Nil--><g id="link_SOL25Object_SOL25Nil"><path codeLine="118" d="M1209.161,1160.3806 C1301.101,1157.4706 1392.76,1154.58 1483.3,1151.71 " fill="none" id="SOL25Object-backto-SOL25Nil" style="stroke:#181818;stroke-width:1.0;"/><polygon fill="none" points="1191.17,1160.95,1209.3508,1166.3776,1208.9712,1154.3836,1191.17,1160.95" style="stroke:#181818;stroke-width:1.0;"/></g><!--reverse link SOL25Object to SOL25String--><g id="link_SOL25Object_SOL25String"><path codeLine="119" d="M1055.5514,1050.2319 C1111.6714,940.4219 1206.45,781.88 1340,673 C1349.23,665.47 1358.93,658.3 1368.99,651.47 " fill="none" id="SOL25Object-backto-SOL25String" style="stroke:#181818;stroke-width:1.0;"/><polygon fill="none" points="1047.36,1066.26,1060.8941,1052.9623,1050.2087,1047.5014,1047.36,1066.26" style="stroke:#181818;stroke-width:1.0;"/></g><!--reverse link SOL25Boolean to SOL25False--><g id="link_SOL25Boolean_SOL25False"><path codeLine="120" d="M2008.2063,206.9466 C2054.3463,207.8866 2083.82,208.48 2129.97,209.42 " fill="none" id="SOL25Boolean-backto-SOL25False" style="stroke:#181818;stroke-width:1.0;"/><polygon fill="none" points="1990.21,206.58,2008.0841,212.9454,2008.3285,200.9479,1990.21,206.58" style="stroke:#181818;stroke-width:1.0;"/></g><!--reverse link SOL25Boolean to SOL25True--><g id="link_SOL25Boolean_SOL25True"><path codeLine="121" d="M2007.9518,141.4123 C2054.0918,133.5123 2083.82,128.42 2129.97,120.51 " fill="none" id="SOL25Boolean-backto-SOL25True" style="stroke:#181818;stroke-width:1.0;"/><polygon fill="none" points="1990.21,144.45,2008.9644,147.3262,2006.9392,135.4983,1990.21,144.45" style="stroke:#181818;stroke-width:1.0;"/></g><!--reverse link SOL25Object to AttributeStorage--><g id="link_SOL25Object_AttributeStorage"><path codeLine="124" d="M1197.5138,1273.093 C1209.0438,1279.043 1209.83,1279.38 1221,1285 C1260.08,1304.64 1282.25,1293.19 1310,1327 C1344.88,1369.49 1298.5,1410.95 1340,1447 C1409.07,1506.99 1520.2,1504.74 1592.67,1494.96 " fill="none" id="SOL25Object-backto-AttributeStorage" style="stroke:#181818;stroke-width:1.0;"/><polygon fill="#181818" points="1186.85,1267.59,1190.3476,1273.8961,1197.5138,1273.093,1194.0162,1266.7869,1186.85,1267.59" style="stroke:#181818;stroke-width:1.0;"/><polygon fill="#000000" points="1256.8598,1278.3009,1250.4117,1271.31,1247.534,1276.4353,1256.8598,1278.3009" style="stroke:#000000;stroke-width:1.0;"/><text fill="#000000" font-family="sans-serif" font-size="13" lengthAdjust="spacing" textLength="21" x="1261.5" y="1280.897">has</text><text fill="#000000" font-family="sans-serif" font-size="13" lengthAdjust="spacing" textLength="20" x="1565.0802" y="1510.9601">0..1</text></g><!--reverse link SOL25BlockObject to AttributeStorage--><g id="link_SOL25BlockObject_AttributeStorage"><path codeLine="125" d="M651.0278,1281.5436 C816.3578,1312.2836 1009.85,1351.8 1191,1399 C1258.33,1416.54 1271.93,1432.62 1340,1447 C1425.91,1465.14 1526.78,1473.78 1592.87,1477.77 " fill="none" id="SOL25BlockObject-backto-AttributeStorage" style="stroke:#181818;stroke-width:1.0;"/><polygon fill="#181818" points="639.23,1279.35,644.3977,1284.3794,651.0278,1281.5436,645.8601,1276.5142,639.23,1279.35" style="stroke:#181818;stroke-width:1.0;"/><polygon fill="#000000" points="990.8949,1304.8728,982.6394,1300.1508,981.4405,1305.9051,990.8949,1304.8728" style="stroke:#000000;stroke-width:1.0;"/><text fill="#000000" font-family="sans-serif" font-size="13" lengthAdjust="spacing" textLength="21" x="995" y="1308.897">has</text></g><!--reverse link SOL25BlockObject to SOL25Block--><g id="link_SOL25BlockObject_SOL25Block"><path codeLine="128" d="M556.7197,1349.4673 C596.8597,1367.3673 628.03,1378.94 669,1391 C763.29,1418.75 878.16,1427.72 944.21,1430.62 " fill="none" id="SOL25BlockObject-backto-SOL25Block" style="stroke:#181818;stroke-width:1.0;"/><polygon fill="none" points="545.76,1344.58,549.6107,1350.6769,556.7197,1349.4673,552.8689,1343.3705,545.76,1344.58" style="stroke:#181818;stroke-width:1.0;"/><polygon fill="#000000" points="669.1062,1380.8281,677.3568,1385.5587,678.5616,1379.8057,669.1062,1380.8281" style="stroke:#000000;stroke-width:1.0;"/><text fill="#000000" font-family="sans-serif" font-size="13" lengthAdjust="spacing" textLength="93" x="683" y="1386.897">captures model</text><text fill="#000000" font-family="sans-serif" font-size="13" lengthAdjust="spacing" textLength="7" x="929.3773" y="1445.5212">1</text></g><!--reverse link SOL25Instance to SOL25Class--><g id="link_SOL25Instance_SOL25Class"><path codeLine="130" d="M1856.81,1339 C2035.72,1339 2288.03,1339 2400.35,1339 " fill="none" id="SOL25Instance-backto-SOL25Class" style="stroke:#181818;stroke-width:1.0;"/><polygon fill="none" points="1844.81,1339,1850.81,1343,1856.81,1339,1850.81,1335,1844.81,1339" style="stroke:#181818;stroke-width:1.0;"/><polygon fill="#000000" points="2020,1329.853,2029.0451,1332.7919,2029.0451,1326.9141,2020,1329.853" style="stroke:#000000;stroke-width:1.0;"/><text fill="#000000" font-family="sans-serif" font-size="13" lengthAdjust="spacing" textLength="65" x="2034" y="1334.897">instance of</text><text fill="#000000" font-family="sans-serif" font-size="13" lengthAdjust="spacing" textLength="7" x="2385.5361" y="1354.0866">1</text></g><!--link SOL25BlockObject to Environment--><g id="link_SOL25BlockObject_Environment"><path codeLine="134" d="M420.98,1105.24 C585.76,912.44 941.56,540.53 1340,399 C1743.5,255.67 2269.5982,457.0028 2412.0682,517.5628 " fill="none" id="SOL25BlockObject-to-Environment" style="stroke:#181818;stroke-width:1.0;"/><polygon fill="#181818" points="2417.59,519.91,2410.872,512.708,2412.9885,517.954,2407.7424,520.0705,2417.59,519.91" style="stroke:#181818;stroke-width:1.0;"/><polygon fill="#000000" points="1254.2955,403.4376,1244.7884,403.1794,1246.4523,408.8168,1254.2955,403.4376" style="stroke:#000000;stroke-width:1.0;"/><text fill="#000000" font-family="sans-serif" font-size="13" lengthAdjust="spacing" textLength="27" x="1258.5" y="409.897">uses</text></g><!--link SOL25String to Environment--><g id="link_SOL25String_Environment"><path codeLine="135" d="M1961.1,536 C2121.02,536 2298.18,536 2389.63,536 " fill="none" id="SOL25String-to-Environment" style="stroke:#181818;stroke-width:1.0;"/><polygon fill="#181818" points="2395.63,536,2386.63,532,2390.63,536,2386.63,540,2395.63,536" style="stroke:#181818;stroke-width:1.0;"/><polygon fill="#000000" points="2049,526.853,2039.9549,523.9141,2039.9549,529.7919,2049,526.853" style="stroke:#000000;stroke-width:1.0;"/><text fill="#000000" font-family="sans-serif" font-size="13" lengthAdjust="spacing" textLength="27" x="2053" y="531.897">uses</text></g><!--link SOL25Integer to Environment--><g id="link_SOL25Integer_Environment"><path codeLine="136" d="M1958.58,744.1 C2131.77,671.35 2327.4782,589.1436 2410.0882,554.4436 " fill="none" id="SOL25Integer-to-Environment" style="stroke:#181818;stroke-width:1.0;"/><polygon fill="#181818" points="2415.62,552.12,2405.7732,551.9175,2411.0102,554.0563,2408.8714,559.2933,2415.62,552.12" style="stroke:#181818;stroke-width:1.0;"/><polygon fill="#000000" points="2048.6098,680.9166,2039.1324,681.71,2041.4087,687.1291,2048.6098,680.9166" style="stroke:#000000;stroke-width:1.0;"/><text fill="#000000" font-family="sans-serif" font-size="13" lengthAdjust="spacing" textLength="27" x="2053" y="687.897">uses</text></g><!--link SOL25Nil to Environment--><g id="link_SOL25Nil_Environment"><path codeLine="137" d="M1846.84,1118.45 C1895.69,1105.83 1946.91,1087.52 1990,1061 C2221.52,918.48 2399.4252,629.8318 2441.6352,557.5218 " fill="none" id="SOL25Nil-to-Environment" style="stroke:#181818;stroke-width:1.0;"/><polygon fill="#181818" points="2444.66,552.34,2436.6683,558.0961,2442.1393,556.6581,2443.5773,562.1292,2444.66,552.34" style="stroke:#181818;stroke-width:1.0;"/><polygon fill="#000000" points="2047.6376,970.4226,2039.0408,974.4902,2043.0735,978.7664,2047.6376,970.4226" style="stroke:#000000;stroke-width:1.0;"/><text fill="#000000" font-family="sans-serif" font-size="13" lengthAdjust="spacing" textLength="27" x="2053" y="978.897">uses</text></g><!--link SOL25Boolean to Environment--><g id="link_SOL25Boolean_Environment"><path codeLine="138" d="M1990.16,294.18 C2027.62,307.45 2064.93,321.8 2100,337 C2229.7,393.21 2368.347,480.1736 2424.557,516.6536 " fill="none" id="SOL25Boolean-to-Environment" style="stroke:#181818;stroke-width:1.0;"/><polygon fill="#181818" points="2429.59,519.92,2424.2181,511.6651,2425.3959,517.198,2419.863,518.3758,2429.59,519.92" style="stroke:#181818;stroke-width:1.0;"/><polygon fill="#000000" points="2048.4503,303.1322,2041.7393,296.3933,2039.0599,301.6249,2048.4503,303.1322" style="stroke:#000000;stroke-width:1.0;"/><text fill="#000000" font-family="sans-serif" font-size="13" lengthAdjust="spacing" textLength="27" x="2053" y="305.897">uses</text></g><!--SRC=[xLXRRzis57xNho3QXyXhR3W3jWSZA60dwM1WJOegM1yBMZgIs52aHbBPl7N_VOUwMPGbst5VXg410aJdolET2mzpGVGJ4pbLD2EP539CbSo065M0Tz7XwPH6yWyc4X9JhbsUa15eoCdFSuUig7YovAkvfQSi0f91jW6blPrGoAdMIsCKsnG6rg4K0ViBoDpZ41jY954iIGs9c8BGC2ayhpG4MMwshJclj4A2Xrz__EaHJqx-zWZ-l26VFwD1ZS64nf_Kj9IAYCDIH3vLIP61C2ikmwT5fLx-_R3vWjuc3KbA3bGuwW_gMxJNiJtbEdvdeVGjrYD6BYkqZxYelhn_71mwSZKSKxAnjFUOBTurHcfkI7DJA8W2uB5hkUBJ9ajwGTgC1KOgcW0P07p4s-MueoP52PZMWIze1Wk2Dh7u9lldUaFqcFGbUQQyW44NeSothPP-XqNlQrceS5YwJfik8_2RKzWaEWA_MNS-Y6UcfB2riI1tkmyoUFfAyrFAE5Xxuzg8cnGHiqrmf1xk6UyLGr3YqTP13Kk5qa3c77udALLyavvctL2wSjAY4-pBhFioUmZU_LvG_YXzQL9GRYeEzDC7D6gEusvnwQhTI15I0m9_Fp6JEau3fzw2eNZNma02gWsc_dQa0aELqTRwdOZq2cAfmCyLnEnFn_GbqKNS9_P3TdDQk-id5P4OpoWoXzAvqz4DTL-XIU5zOOVkU0fFAOJJm3kl67vHW0bLZ_ZbQDOU3jOHB_GXdQ53lcVY3AM26vRpxMhxKirRzlnofKUMWVu8EG9JJUMXc-R5xLCMob8nivqVxBtPR3QYTzLUeavs3v_5cdCxeRn6lz_vhTyQYjVDIDWWkQQ09M5xb1QNTJJVK1FELJOmSApheOdJ7gc1vruQ_n1y_yFSdJ8q-oDV6of2Q6T-oUkkM3UbSBFk5OoRjRW53WdcV6YdOm8N2ifnvLvPOTOAjwtJJUg8kqw2Iy8zxc1xMm8oL-vv_B5jhdSKEz6KeDoFXWAPz332ANNAA3XfMq5Ru_VScKl7wPUQ6vUpoh_UBUFr0Zw-aX_CIXrfX2TcuHcNxNbNz67q_qFRFwRWWaodK_8HEBMRjqvPhYt5CjO2WsPbHthT75r_HGqd-17kRZICI3GDFygkxlfXhgsyOKuDjtDdxBZbb1jZbcs0iT_8B9UwV8quJdv0mLVpsUpgrNv1BZ3zchmbtju3rMgDYwExPP8es_kjkwwsj3xHOUUHkMWUcPfaTbwHQt94hwPr53K-JycrvqvUHwSQVtPBRhXnwyZLg11n7JNZJDj_SrpRA6znHHFOYo43lN_SwVIjCs4MfD2mmxD-unsHQbuDHyJi53qYqjJ6kDY_]--></g></svg>